<svg xmlns="http://www.w3.org/2000/svg" xmlns:xlink="http://www.w3.org/1999/xlink" width="1920" zoomAndPan="magnify" viewBox="0 0 1440 809.999993" height="1080" preserveAspectRatio="xMidYMid meet" version="1.2"><defs><clipPath id="e3170a2193"><path d="M 521.679688 523 L 935 523 L 935 541.320312 L 521.679688 541.320312 Z M 521.679688 523 "/></clipPath><clipPath id="7b8892b0d2"><path d="M 398.429688 608 L 1058 608 L 1058 637.625 L 398.429688 637.625 Z M 398.429688 608 "/></clipPath></defs><g id="825855e83e"><g clip-rule="nonzero" clip-path="url(#e3170a2193)"><path style=" stroke:none;fill-rule:nonzero;fill:#f4f2f9;fill-opacity:1;" d="M 925.660156 523.335938 L 530.804688 523.335938 C 525.847656 523.335938 521.828125 527.355469 521.828125 532.3125 C 521.828125 537.265625 525.847656 541.285156 530.804688 541.285156 L 925.660156 541.285156 C 930.613281 541.285156 934.636719 537.265625 934.636719 532.3125 C 934.636719 527.355469 930.613281 523.335938 925.660156 523.335938 Z M 925.660156 523.335938 "/></g><path style=" stroke:none;fill-rule:nonzero;fill:#f4f2f9;fill-opacity:1;" d="M 565.171875 377.6875 C 580.609375 393.390625 601.609375 401.917969 622.964844 401.917969 C 632.210938 401.917969 641.453125 400.300781 650.425781 397.070312 L 725.261719 369.871094 L 710.9375 448.996094 C 710.085938 453.726562 711.84375 458.589844 715.515625 461.683594 C 717.976562 463.757812 721.070312 464.851562 724.203125 464.851562 C 725.746094 464.851562 727.300781 464.582031 728.789062 464.046875 L 750.972656 455.96875 C 758.492188 453.230469 764.371094 447.335938 767.089844 439.796875 L 802.410156 341.71875 L 916.050781 300.339844 C 924.039062 297.46875 930.140625 291.097656 932.652344 283.019531 C 935.164062 274.855469 933.730469 266.238281 928.703125 259.238281 C 916.769531 242.726562 897.382812 232.855469 876.921875 232.855469 C 869.386719 232.855469 862.027344 234.113281 854.9375 236.714844 L 767.773438 268.429688 L 687.839844 221.890625 C 680.929688 217.851562 672.675781 217.132812 665.046875 219.824219 L 642.878906 227.902344 C 638.304688 229.515625 634.984375 233.554688 634.175781 238.402344 C 633.367188 243.15625 635.253906 248.003906 638.839844 250.875 L 692.738281 295.726562 L 617.664062 323.042969 C 610.933594 325.46875 603.484375 325.199219 597.203125 322.238281 L 567.585938 308.597656 C 563.28125 306.621094 558.253906 306.441406 553.945312 308.058594 L 531.601562 316.222656 C 527.292969 317.75 524.0625 321.339844 522.988281 325.738281 C 521.910156 330.222656 523.167969 334.890625 526.488281 338.300781 L 565.164062 377.695312 Z M 656.351562 242.070312 L 671.15625 236.6875 C 673.671875 235.789062 676.453125 235.96875 678.785156 237.316406 L 745.929688 276.371094 L 712.277344 288.613281 L 656.339844 242.070312 Z M 560.058594 324.921875 L 589.671875 338.5625 C 600.261719 343.40625 612.734375 343.945312 623.773438 339.90625 L 861.046875 253.578125 C 866.164062 251.691406 871.457031 250.792969 876.933594 250.792969 C 891.648438 250.792969 905.558594 257.882812 914.175781 269.820312 C 915.878906 272.0625 916.328125 274.933594 915.519531 277.71875 C 914.625 280.410156 912.648438 282.472656 909.957031 283.460938 L 810.328125 319.761719 L 811.753906 315.8125 C 813.433594 311.144531 811.007812 306.003906 806.351562 304.324219 C 801.695312 302.664062 796.550781 305.070312 794.863281 309.726562 L 750.210938 433.703125 C 749.304688 436.214844 747.347656 438.183594 744.84375 439.097656 L 730 444.5 L 749.421875 337.195312 C 750.308594 332.324219 747.070312 327.648438 742.1875 326.769531 C 737.289062 325.871094 732.648438 329.128906 731.757812 334.003906 L 728.96875 349.417969 L 644.324219 380.210938 C 621.261719 388.554688 595.148438 382.632812 577.917969 365.132812 L 544.175781 330.671875 L 560.058594 324.929688 Z M 560.058594 324.921875 "/><g clip-rule="nonzero" clip-path="url(#7b8892b0d2)"><path style=" stroke:none;fill-rule:nonzero;fill:#ff3e78;fill-opacity:1;" d="M 1042.824219 608.996094 L 412.988281 608.996094 C 405.085938 608.996094 398.675781 615.410156 398.675781 623.3125 C 398.675781 631.214844 405.085938 637.625 412.988281 637.625 L 1042.824219 637.625 C 1050.726562 637.625 1057.136719 631.214844 1057.136719 623.3125 C 1057.136719 615.410156 1050.726562 608.996094 1042.824219 608.996094 Z M 1042.824219 608.996094 "/></g><path style=" stroke:none;fill-rule:nonzero;fill:#ff3e78;fill-opacity:1;" d="M 467.8125 376.675781 C 492.433594 401.726562 525.929688 415.324219 560 415.324219 C 574.742188 415.324219 589.484375 412.746094 603.800781 407.59375 L 723.167969 364.207031 L 700.324219 490.417969 C 698.960938 497.960938 701.769531 505.71875 707.621094 510.65625 C 711.542969 513.964844 716.484375 515.710938 721.480469 515.710938 C 723.941406 515.710938 726.417969 515.28125 728.792969 514.421875 L 764.179688 501.539062 C 776.175781 497.175781 785.550781 487.769531 789.886719 475.746094 L 846.230469 319.304688 L 1027.492188 253.300781 C 1040.230469 248.71875 1049.964844 238.554688 1053.972656 225.671875 C 1057.980469 212.648438 1055.691406 198.90625 1047.675781 187.738281 C 1028.636719 161.402344 997.71875 145.65625 965.082031 145.65625 C 953.058594 145.65625 941.320312 147.660156 930.011719 151.808594 L 790.976562 202.398438 L 663.476562 128.164062 C 652.453125 121.722656 639.285156 120.578125 627.117188 124.871094 L 591.761719 137.753906 C 584.460938 140.332031 579.164062 146.773438 577.878906 154.5 C 576.589844 162.089844 579.59375 169.816406 585.320312 174.398438 L 671.292969 245.941406 L 551.539062 289.515625 C 540.800781 293.378906 528.921875 292.949219 518.902344 288.226562 L 471.664062 266.46875 C 464.792969 263.320312 456.777344 263.03125 449.90625 265.609375 L 414.261719 278.636719 C 407.390625 281.070312 402.238281 286.796875 400.523438 293.808594 C 398.804688 300.964844 400.808594 308.410156 406.105469 313.847656 L 467.800781 376.691406 Z M 613.246094 160.355469 L 636.867188 151.765625 C 640.875 150.335938 645.3125 150.621094 649.035156 152.769531 L 756.132812 215.066406 L 702.457031 234.589844 L 613.234375 160.355469 Z M 459.65625 292.507812 L 506.890625 314.265625 C 523.78125 321.996094 543.679688 322.851562 561.285156 316.410156 L 939.757812 178.707031 C 947.917969 175.699219 956.363281 174.269531 965.097656 174.269531 C 988.570312 174.269531 1010.757812 185.578125 1024.5 204.617188 C 1027.21875 208.195312 1027.9375 212.773438 1026.648438 217.210938 C 1025.214844 221.507812 1022.066406 224.800781 1017.773438 226.375 L 858.855469 284.277344 L 861.128906 277.976562 C 863.808594 270.535156 859.941406 262.332031 852.511719 259.65625 C 845.085938 257.007812 836.882812 260.84375 834.191406 268.273438 L 762.960938 466.027344 C 761.515625 470.035156 758.394531 473.167969 754.402344 474.628906 L 730.726562 483.246094 L 761.703125 312.089844 C 763.121094 304.316406 757.953125 296.859375 750.164062 295.457031 C 742.347656 294.023438 734.949219 299.21875 733.53125 306.992188 L 729.082031 331.585938 L 594.066406 380.699219 C 557.277344 394.011719 515.625 384.5625 488.140625 356.648438 L 434.316406 301.683594 L 459.65625 292.519531 Z M 459.65625 292.507812 "/></g></svg>