<svg xmlns="http://www.w3.org/2000/svg" xmlns:xlink="http://www.w3.org/1999/xlink" width="1920" zoomAndPan="magnify" viewBox="0 0 1440 809.999993" height="1080" preserveAspectRatio="xMidYMid meet" version="1.2"><defs><clipPath id="06a7a659b4"><path d="M 421 127 L 1018.71875 127 L 1018.71875 685 L 421 685 Z M 421 127 "/></clipPath><clipPath id="c6ba20132d"><path d="M 421 127 L 1018.71875 127 L 1018.71875 685 L 421 685 Z M 421 127 "/></clipPath></defs><g id="724f938a3e"><g clip-rule="nonzero" clip-path="url(#06a7a659b4)"><path style=" stroke:none;fill-rule:nonzero;fill:#ffffff;fill-opacity:1;" d="M 1017.976562 239.132812 C 1017.234375 236.535156 1014.824219 234.863281 1010.183594 232.449219 C 1004.429688 229.296875 1001.460938 226.699219 1002.203125 220.203125 C 1002.574219 216.492188 999.976562 212.039062 997.378906 209.253906 C 993.296875 204.800781 987.542969 202.574219 981.605469 203.128906 C 974.921875 203.871094 968.984375 207.953125 965.273438 214.449219 C 954.511719 233.007812 943.5625 251.9375 932.984375 270.125 L 924.632812 284.597656 C 919.804688 292.949219 915.167969 301.113281 910.34375 309.464844 L 908.671875 312.25 L 901.25 256.019531 L 901.0625 254.164062 L 855.039062 260.289062 L 850.398438 224.84375 L 850.214844 222.984375 L 758.351562 235.050781 C 757.425781 231.707031 756.683594 228.183594 755.941406 224.84375 C 753.15625 213.523438 750.371094 202.386719 747.589844 191.066406 C 742.578125 170.839844 732.1875 164.527344 710.101562 168.796875 C 702.863281 152.835938 691.171875 148.753906 670.015625 153.949219 C 668.902344 154.320312 667.605469 154.507812 666.492188 154.878906 C 665.5625 151.539062 664.820312 148.011719 663.894531 144.671875 C 662.964844 141.144531 661.296875 137.804688 659.066406 134.835938 C 652.386719 127.042969 641.253906 125 632.34375 130.011719 C 623.992188 134.835938 619.910156 144.488281 621.953125 153.949219 C 622.878906 157.847656 623.808594 161.558594 624.734375 165.457031 C 570.359375 178.820312 515.800781 192.367188 461.984375 205.914062 C 437.859375 212.039062 430.0625 225.027344 436.1875 249.523438 C 450.105469 305.382812 463.839844 361.058594 477.757812 416.917969 C 481.65625 432.503906 485.550781 448.09375 489.261719 463.683594 C 486.664062 464.054688 484.253906 465.539062 482.582031 467.765625 L 423.382812 547.007812 C 421.710938 549.234375 420.96875 552.019531 421.339844 554.800781 C 421.710938 557.585938 423.195312 559.996094 425.425781 561.667969 L 441.199219 573.359375 L 454.1875 583.007812 C 456.042969 584.496094 458.273438 585.050781 460.5 585.050781 C 463.652344 585.050781 466.992188 583.566406 469.035156 580.78125 L 506.152344 531.046875 C 510.417969 548.121094 514.6875 565.378906 518.957031 582.265625 C 520.625 588.761719 522.667969 594.144531 525.078125 598.414062 C 530.089844 614.1875 544.75 624.578125 560.710938 624.578125 C 563.496094 624.578125 566.464844 624.207031 569.433594 623.464844 L 615.085938 612.144531 L 620.46875 653.34375 L 666.492188 647.21875 L 671.316406 684.519531 L 885.84375 656.3125 L 886.402344 656.3125 L 888.074219 654.644531 C 888.628906 654.457031 889.371094 654.273438 889.742188 653.714844 L 943.191406 599.15625 C 943.191406 599.15625 943.191406 598.96875 943.375 598.96875 L 945.972656 596.371094 L 916.835938 375.160156 L 935.953125 342.128906 L 936.507812 342.5 L 995.707031 240.246094 L 1001.648438 243.398438 L 973.4375 292.207031 C 971.582031 295.363281 969.726562 298.515625 968.058594 301.671875 C 962.859375 310.394531 957.664062 319.488281 952.839844 328.582031 C 951.726562 330.808594 952.28125 333.40625 952.839844 336.003906 C 953.023438 337.117188 953.394531 338.046875 953.394531 338.972656 L 953.765625 341.757812 L 958.222656 339.34375 C 960.078125 338.230469 962.117188 337.117188 963.972656 336.003906 C 964.902344 335.445312 965.273438 334.519531 965.457031 333.960938 C 965.457031 333.777344 965.644531 333.589844 965.644531 333.40625 C 981.789062 305.382812 997.933594 277.359375 1014.265625 249.339844 C 1017.234375 245.070312 1018.71875 241.914062 1017.976562 239.132812 Z M 642.738281 161.003906 C 641.996094 157.664062 641.066406 154.136719 640.324219 150.796875 C 639.953125 148.941406 639.582031 146.898438 642.179688 146.34375 C 644.777344 145.785156 645.707031 147.269531 646.261719 149.496094 C 647.003906 152.835938 647.933594 156.363281 648.675781 159.703125 C 646.632812 160.074219 644.59375 160.445312 642.738281 161.003906 Z M 639.398438 134.09375 C 642.179688 133.351562 645.148438 133.539062 647.933594 134.652344 C 653.871094 136.691406 656.65625 141.144531 658.140625 147.085938 C 658.882812 150.238281 659.625 153.394531 660.550781 156.734375 C 658.695312 157.292969 656.65625 157.664062 654.800781 158.21875 C 653.871094 154.136719 652.757812 150.238281 651.832031 146.15625 C 650.53125 141.886719 646.261719 139.289062 641.996094 139.847656 C 636.984375 140.21875 633.273438 144.671875 633.828125 149.683594 C 633.828125 150.238281 634.015625 150.796875 634.199219 151.351562 C 635.128906 155.0625 636.054688 158.960938 636.984375 162.671875 C 634.941406 163.230469 633.085938 163.601562 631.046875 164.15625 C 630.117188 160.445312 629.191406 156.550781 628.261719 152.835938 C 626.035156 144.300781 631.230469 136.136719 639.398438 134.09375 Z M 639.398438 134.09375 "/></g><path style=" stroke:none;fill-rule:nonzero;fill:#ff3e78;fill-opacity:1;" d="M 888.257812 567.421875 L 837.039062 619.753906 L 836.851562 619.011719 L 831.101562 574.84375 Z M 636.796875 189.023438 C 636.984375 189.582031 637.167969 190.140625 637.167969 190.882812 C 637.539062 192.179688 637.726562 193.480469 638.097656 194.777344 C 638.652344 196.632812 639.027344 198.675781 639.398438 200.53125 L 646.449219 198.859375 C 646.078125 198.675781 645.707031 198.304688 645.335938 198.117188 C 644.964844 197.746094 644.777344 197.003906 644.59375 196.449219 C 644.035156 194.222656 643.480469 191.808594 642.921875 189.582031 C 642.738281 189.023438 642.550781 188.46875 642.550781 187.726562 C 642.367188 187.167969 642.179688 186.425781 642.179688 185.871094 C 640.511719 179.375 639.027344 172.695312 637.355469 166.199219 C 635.3125 166.753906 633.457031 167.128906 631.417969 167.683594 C 633.085938 174.179688 634.570312 180.859375 636.242188 187.355469 C 636.425781 187.726562 636.613281 188.46875 636.796875 189.023438 Z M 648.675781 186.054688 C 648.859375 186.613281 649.046875 187.167969 649.046875 187.910156 C 649.417969 189.582031 649.972656 191.4375 650.347656 193.109375 C 650.71875 194.222656 650.902344 195.519531 650.902344 196.820312 C 650.902344 197.191406 650.71875 197.5625 650.53125 197.746094 L 657.210938 196.078125 C 657.210938 196.078125 657.210938 196.078125 657.398438 196.078125 C 656.65625 192.921875 655.914062 189.769531 654.984375 186.425781 C 654.800781 185.871094 654.613281 185.3125 654.613281 184.570312 C 654.429688 184.015625 654.242188 183.273438 654.242188 182.714844 C 652.574219 176.21875 651.089844 169.539062 649.417969 163.042969 C 647.375 163.601562 645.519531 163.972656 643.480469 164.527344 C 645.148438 171.023438 646.632812 177.703125 648.304688 184.199219 C 648.488281 184.757812 648.675781 185.5 648.675781 186.054688 Z M 726.0625 243.214844 C 725.875 242.65625 725.691406 241.914062 725.503906 241.359375 C 725.320312 240.800781 725.132812 240.058594 724.949219 239.503906 C 719.753906 219.644531 719.195312 217.417969 716.96875 208.140625 C 715.667969 202.945312 714 195.707031 710.472656 181.972656 C 709.730469 178.820312 708.804688 175.847656 707.875 173.25 C 707.691406 172.695312 707.503906 172.136719 707.132812 171.582031 C 706.949219 171.023438 706.578125 170.46875 706.390625 169.910156 C 701.9375 160.074219 695.441406 155.808594 685.234375 155.808594 C 681.152344 155.808594 676.511719 156.550781 670.945312 157.847656 C 665.75 159.148438 660.738281 160.445312 655.542969 161.746094 C 657.210938 168.242188 658.695312 174.921875 660.367188 181.417969 C 660.550781 181.972656 660.738281 182.714844 660.738281 183.273438 C 660.921875 183.828125 661.109375 184.386719 661.109375 185.128906 C 662.039062 188.652344 662.78125 192.179688 663.707031 195.890625 C 671.316406 196.632812 677.8125 202.203125 679.851562 209.808594 L 687.460938 240.988281 C 687.832031 242.285156 688.019531 243.585938 688.019531 244.882812 C 688.019531 245.441406 688.019531 246.183594 688.019531 246.742188 C 688.019531 247.296875 687.832031 248.039062 687.832031 248.597656 C 687.460938 250.824219 686.71875 253.050781 685.421875 255.089844 C 682.820312 259.359375 678.738281 262.328125 673.914062 263.441406 L 576.113281 287.566406 L 572.402344 288.308594 L 510.789062 303.527344 C 509.304688 303.898438 507.820312 304.085938 506.335938 304.085938 C 497.984375 304.085938 490.375 298.332031 488.335938 289.980469 L 480.726562 258.804688 C 479.613281 253.976562 480.355469 248.96875 482.769531 244.699219 C 485.367188 240.429688 489.449219 237.460938 494.273438 236.347656 L 633.457031 201.832031 C 632.714844 198.675781 631.789062 195.519531 631.046875 192.179688 C 630.859375 191.625 630.675781 191.066406 630.675781 190.324219 C 630.488281 189.769531 630.304688 189.023438 630.304688 188.46875 C 629.5625 185.3125 628.820312 182.34375 628.078125 179.191406 C 627.148438 175.664062 626.40625 172.324219 625.476562 168.796875 C 571.289062 182.34375 516.730469 196.078125 462.910156 209.4375 C 440.640625 215.007812 434.332031 225.957031 439.898438 248.597656 C 453.816406 304.457031 467.550781 360.128906 481.46875 415.988281 C 485.367188 431.761719 489.261719 447.722656 493.347656 463.683594 C 494.832031 464.054688 496.316406 464.609375 497.613281 465.539062 L 500.769531 467.949219 C 500.953125 467.949219 501.140625 467.949219 501.140625 467.949219 C 501.140625 467.949219 501.324219 467.949219 501.695312 467.207031 L 501.882812 467.023438 C 504.480469 463.3125 507.265625 459.597656 510.046875 455.886719 C 506.335938 451.433594 503.179688 446.980469 500.582031 442.15625 C 489.078125 425.824219 484.066406 407.082031 486.109375 386.109375 C 487.035156 376.273438 489.820312 366.996094 494.089844 358.644531 C 494.460938 357.714844 495.015625 356.972656 495.386719 356.046875 C 495.757812 355.304688 496.316406 354.5625 496.6875 353.820312 C 512.273438 327.46875 542.152344 310.394531 573.886719 313.175781 C 574.445312 313.175781 575.1875 313.363281 575.742188 313.363281 C 576.300781 313.363281 577.042969 313.550781 577.597656 313.550781 C 578.15625 313.550781 578.898438 313.734375 579.453125 313.921875 C 597.828125 316.703125 613.785156 325.242188 625.847656 337.859375 C 626.589844 338.601562 627.335938 339.34375 628.078125 340.273438 C 628.820312 341.199219 629.5625 341.941406 630.304688 342.871094 C 633.457031 346.765625 636.425781 351.035156 638.839844 355.675781 C 648.859375 369.777344 654.613281 387.222656 654.613281 406.710938 C 654.429688 420.257812 650.71875 433.433594 643.664062 444.9375 C 643.109375 445.679688 642.550781 446.609375 642.179688 447.351562 C 641.808594 447.90625 641.4375 448.464844 641.066406 449.023438 C 640.882812 449.207031 640.695312 449.578125 640.511719 449.765625 C 629.746094 464.980469 616.570312 475.558594 601.539062 481.125 C 600.980469 481.3125 600.425781 481.496094 599.683594 481.867188 C 599.125 482.054688 598.570312 482.238281 597.828125 482.425781 C 585.765625 486.136719 572.589844 487.066406 558.113281 485.023438 C 549.390625 483.726562 541.226562 480.753906 533.617188 476.300781 C 532.503906 475.746094 532.503906 475.746094 531.761719 476.671875 C 530.648438 478.34375 529.347656 480.011719 528.234375 481.496094 C 527.863281 482.054688 527.492188 482.609375 526.9375 483.167969 C 526.9375 483.355469 526.75 483.355469 526.75 483.539062 C 526.195312 484.28125 525.820312 484.839844 525.265625 485.582031 C 524.894531 485.953125 524.707031 486.324219 524.523438 486.695312 L 525.820312 487.808594 L 526.007812 487.992188 C 526.9375 488.734375 527.863281 489.664062 528.421875 490.589844 C 529.71875 492.632812 530.277344 495.046875 530.089844 497.457031 C 529.90625 498.757812 529.71875 499.871094 529.164062 501.167969 C 528.792969 501.726562 528.605469 502.28125 528.234375 502.839844 L 508.933594 528.636719 C 513.386719 546.820312 518.027344 564.824219 522.480469 582.824219 C 522.667969 583.75 523.039062 584.492188 523.222656 585.421875 C 524.152344 571.316406 533.058594 558.699219 546.605469 553.132812 C 547.164062 552.945312 547.90625 552.574219 548.648438 552.390625 C 549.390625 552.203125 550.132812 551.832031 550.875 551.648438 C 550.875 551.648438 551.0625 551.648438 551.0625 551.648438 L 605.25 537.726562 L 607.105469 537.171875 L 608.960938 536.613281 L 650.71875 525.851562 L 652.574219 525.292969 L 654.429688 524.738281 L 722.535156 507.109375 C 722.164062 505.25 721.609375 503.394531 721.050781 501.355469 C 720.679688 500.242188 720.496094 498.941406 720.125 497.644531 C 719.195312 493.929688 718.269531 490.035156 717.339844 486.136719 C 716.96875 485.023438 716.78125 483.726562 716.410156 482.425781 C 713.070312 468.691406 709.359375 454.03125 705.832031 439.371094 C 705.460938 438.074219 705.277344 436.957031 704.90625 435.660156 C 703.976562 431.761719 703.050781 428.050781 702.121094 424.152344 C 701.75 422.855469 701.566406 421.742188 701.195312 420.441406 C 695.8125 399.101562 690.988281 379.800781 687.832031 367.738281 C 683.5625 351.59375 685.792969 337.859375 694.699219 324.867188 C 697.667969 320.414062 700.636719 315.777344 703.421875 311.136719 C 704.347656 309.835938 705.089844 308.351562 706.019531 307.054688 C 706.761719 305.941406 707.503906 304.828125 708.0625 303.714844 C 709.917969 300.558594 711.957031 297.402344 714 294.25 C 714.925781 292.949219 715.667969 291.464844 716.597656 290.164062 C 716.78125 289.792969 717.152344 289.421875 717.339844 289.050781 C 718.269531 287.753906 719.195312 286.269531 719.9375 284.96875 C 720.496094 284.042969 721.238281 283.113281 721.792969 282.1875 C 721.980469 282 721.980469 281.816406 722.164062 281.816406 C 722.535156 281.257812 722.90625 280.703125 723.277344 280.144531 C 723.648438 279.402344 724.019531 278.84375 724.390625 278.101562 C 729.589844 268.824219 730.515625 259.359375 727.546875 248.039062 C 726.804688 246 726.246094 244.699219 726.0625 243.214844 Z M 594.300781 454.960938 C 585.949219 458.671875 576.855469 460.714844 567.390625 460.714844 L 567.390625 462.570312 L 567.390625 460.714844 C 547.535156 460.714844 529.90625 451.804688 517.84375 438.074219 C 516.914062 436.957031 515.988281 435.84375 515.058594 434.730469 C 514.875 434.359375 514.5 433.988281 514.316406 433.804688 C 513.015625 431.390625 511.902344 428.980469 510.976562 426.382812 C 509.304688 422.113281 508.191406 417.472656 507.636719 413.019531 C 507.265625 410.050781 507.078125 407.082031 507.078125 403.925781 C 507.078125 403.554688 507.078125 403.183594 507.078125 402.8125 C 507.078125 400.769531 507.265625 398.542969 507.449219 396.503906 C 510.976562 363.65625 538.441406 337.859375 571.847656 337.675781 L 572.21875 337.675781 C 572.402344 337.675781 572.402344 337.675781 572.589844 337.675781 C 574.816406 337.675781 576.855469 337.859375 579.082031 338.046875 C 579.640625 338.046875 580.382812 338.230469 580.9375 338.230469 C 581.496094 338.230469 582.238281 338.417969 582.796875 338.417969 C 600.425781 341.199219 615.828125 351.035156 625.847656 364.769531 C 628.261719 369.59375 630.117188 374.605469 631.417969 379.984375 C 632.34375 384.070312 632.902344 388.335938 633.085938 392.792969 C 633.085938 393.535156 633.085938 394.089844 633.085938 394.832031 C 633.085938 412.460938 626.40625 428.980469 613.972656 441.597656 C 609.148438 446.421875 603.765625 450.507812 597.828125 453.660156 C 597.269531 454.03125 596.714844 454.21875 596.15625 454.589844 C 595.414062 454.402344 594.859375 454.589844 594.300781 454.960938 Z M 593.371094 448.09375 C 593.929688 447.722656 594.488281 447.535156 595.042969 447.164062 C 595.601562 446.792969 596.15625 446.421875 596.714844 446.238281 C 612.671875 436.773438 623.4375 419.144531 623.4375 399.285156 C 623.4375 374.234375 606.550781 353.078125 583.539062 346.582031 C 582.980469 346.394531 582.238281 346.210938 581.679688 346.023438 C 581.125 345.839844 580.382812 345.652344 579.824219 345.652344 C 576.300781 344.910156 572.589844 344.539062 568.875 344.539062 C 538.628906 344.539062 514.128906 369.035156 514.128906 399.285156 C 514.128906 429.535156 538.628906 454.03125 568.875 454.03125 C 577.785156 453.847656 585.949219 451.621094 593.371094 448.09375 Z M 799.921875 301.671875 C 793.984375 295.734375 788.046875 289.792969 782.105469 283.855469 L 784.332031 302.042969 C 784.703125 305.570312 788.046875 308.167969 791.570312 307.796875 L 820.894531 304.085938 C 824.417969 303.714844 827.015625 300.371094 826.644531 296.847656 L 824.417969 279.214844 C 816.996094 286.640625 809.386719 294.25 801.964844 301.671875 C 801.222656 302.414062 800.664062 302.414062 799.921875 301.671875 Z M 780.808594 273.835938 L 780.992188 276.0625 L 781.363281 279.773438 L 781.734375 282 C 781.734375 282 781.921875 281.816406 781.921875 281.816406 C 782.664062 281.074219 783.589844 280.332031 784.332031 279.402344 C 784.519531 279.214844 784.519531 279.214844 784.703125 279.03125 C 785.632812 278.101562 786.375 277.359375 787.304688 276.433594 C 788.417969 275.320312 788.972656 275.503906 789.902344 276.617188 C 792.871094 279.585938 795.839844 282.371094 798.625 285.527344 C 800.109375 287.195312 801.035156 287.382812 802.519531 285.527344 C 807.902344 279.960938 813.46875 274.578125 818.851562 269.011719 C 819.035156 268.824219 819.410156 268.453125 819.59375 268.265625 C 820.894531 266.96875 821.636719 266.78125 822.75 267.710938 L 822.75 267.523438 C 822.75 267.152344 822.5625 266.78125 822.5625 266.410156 C 822.378906 265.855469 822.007812 265.113281 821.820312 264.742188 C 820.523438 262.699219 818.109375 261.585938 815.511719 261.773438 L 786.191406 265.484375 C 783.589844 265.855469 781.363281 267.710938 780.808594 270.125 C 780.621094 270.679688 780.621094 271.421875 780.621094 271.980469 C 780.621094 272.164062 780.621094 272.535156 780.621094 272.722656 Z M 831.101562 332.105469 L 834.8125 361.429688 C 835.183594 364.953125 832.769531 368.292969 829.058594 368.664062 L 799.738281 372.378906 C 796.210938 372.75 792.871094 370.335938 792.5 366.625 L 788.789062 337.304688 C 788.417969 333.777344 790.828125 330.4375 794.539062 330.066406 L 823.863281 326.355469 C 827.386719 325.984375 830.542969 328.582031 831.101562 332.105469 Z M 826.644531 335.816406 C 824.605469 334.519531 822.75 333.035156 820.894531 331.363281 C 819.78125 330.25 819.035156 330.621094 818.292969 331.734375 C 816.253906 334.519531 813.839844 337.304688 811.800781 340.085938 C 811.058594 341.199219 810.316406 341.199219 809.386719 340.457031 C 806.601562 338.230469 803.632812 336.003906 800.851562 333.777344 C 799.921875 333.035156 799.367188 333.035156 798.625 333.960938 C 797.140625 336.003906 795.652344 338.046875 793.984375 339.902344 C 793.054688 341.015625 793.054688 341.570312 794.355469 342.5 C 797.140625 344.539062 799.738281 346.765625 802.519531 348.808594 C 803.820312 349.738281 804.003906 350.480469 802.890625 351.59375 C 800.664062 354.375 798.625 357.160156 796.394531 359.945312 C 795.652344 360.871094 795.46875 361.429688 796.582031 362.171875 C 798.625 363.65625 800.664062 365.324219 802.707031 366.808594 C 803.820312 367.738281 804.375 367.550781 805.117188 366.4375 C 807.160156 363.65625 809.574219 360.871094 811.613281 358.085938 C 812.542969 356.972656 813.097656 356.789062 814.210938 357.714844 C 816.808594 359.945312 819.59375 361.984375 822.378906 364.027344 C 822.933594 364.398438 823.304688 364.953125 824.046875 364.953125 C 824.234375 364.582031 824.605469 364.210938 824.976562 363.839844 C 826.460938 361.984375 827.945312 359.945312 829.429688 358.085938 C 830.355469 356.972656 830.542969 356.230469 829.058594 355.304688 C 826.273438 353.261719 823.675781 351.035156 820.894531 348.996094 C 819.78125 348.066406 819.59375 347.511719 820.523438 346.394531 C 822.75 343.796875 824.789062 341.015625 827.015625 338.230469 C 827.945312 337.488281 828.128906 336.746094 826.644531 335.816406 Z M 831.285156 392.417969 L 801.964844 396.132812 C 798.4375 396.503906 795.839844 399.84375 796.210938 403.367188 L 796.953125 409.121094 C 798.625 407.636719 800.109375 405.96875 801.59375 404.484375 C 802.707031 403.367188 803.261719 403.554688 804.191406 404.667969 C 807.160156 407.636719 810.128906 410.421875 812.914062 413.574219 C 814.398438 415.246094 815.324219 415.433594 816.808594 413.574219 C 822.378906 407.824219 828.316406 402.253906 833.882812 396.316406 C 835.367188 394.832031 836.109375 394.832031 837.410156 396.316406 C 837.59375 396.503906 837.78125 396.6875 837.964844 396.875 C 837.410156 393.90625 834.441406 392.046875 831.285156 392.417969 Z M 814.210938 429.722656 C 808.644531 424.152344 803.261719 418.773438 797.695312 413.203125 L 800.109375 432.691406 C 800.480469 436.214844 803.820312 438.816406 807.34375 438.445312 L 836.667969 434.730469 C 837.78125 434.546875 838.707031 434.175781 839.449219 433.617188 L 842.421875 428.609375 C 842.421875 428.238281 842.421875 427.867188 842.421875 427.308594 L 839.820312 406.152344 C 832.027344 413.945312 824.234375 421.742188 816.4375 429.535156 C 815.511719 430.464844 814.953125 430.648438 814.210938 429.722656 Z M 840.007812 487.992188 C 838.707031 487.4375 837.410156 486.695312 836.109375 486.136719 L 827.015625 493.558594 L 828.6875 482.238281 C 828.5 482.054688 828.316406 482.054688 828.128906 481.867188 C 822.378906 478.898438 823.675781 474.261719 824.417969 470.734375 C 824.605469 469.992188 824.789062 469.433594 824.976562 468.878906 C 825.53125 466.09375 825.902344 463.3125 826.460938 460.34375 C 826.460938 460.34375 826.460938 460.34375 826.460938 460.15625 L 810.871094 462.011719 C 807.34375 462.382812 804.746094 465.722656 805.117188 469.25 L 808.832031 498.570312 C 809.203125 502.097656 812.542969 504.695312 816.066406 504.324219 L 845.390625 500.613281 C 848.914062 500.242188 851.511719 496.902344 851.140625 493.375 L 849.84375 482.238281 C 848.359375 483.539062 846.6875 484.839844 845.203125 486.136719 C 843.535156 487.4375 842.234375 488.179688 841.121094 488.179688 C 840.75 488.179688 840.378906 488.179688 840.007812 487.992188 Z M 785.074219 573.359375 C 784.703125 569.832031 781.363281 567.234375 777.839844 567.605469 L 747.960938 571.316406 L 744.992188 571.6875 C 744.0625 571.875 743.136719 572.058594 742.394531 572.617188 C 740.539062 573.730469 739.238281 575.773438 739.238281 578 C 739.238281 578.371094 739.238281 578.742188 739.238281 579.113281 L 739.421875 579.855469 L 739.609375 581.710938 L 741.28125 595.257812 C 741.652344 598.785156 744.992188 601.382812 748.515625 601.011719 L 752.414062 600.453125 L 781.550781 596.742188 C 785.074219 596.371094 787.675781 593.03125 787.304688 589.503906 Z M 855.226562 523.253906 L 787.304688 532.160156 L 787.859375 535.871094 L 855.78125 526.964844 Z M 982.160156 206.839844 C 976.777344 207.398438 971.769531 210.921875 968.613281 216.304688 C 957.851562 234.863281 946.902344 253.792969 936.324219 271.980469 L 927.972656 286.453125 C 926.488281 289.238281 924.816406 291.835938 923.332031 294.621094 C 922.960938 295.175781 922.777344 295.734375 922.40625 296.289062 C 919.433594 301.300781 916.652344 306.3125 913.683594 311.507812 L 909.601562 318.558594 L 908.113281 321.15625 L 907.742188 321.898438 L 908.113281 322.085938 L 908.300781 322.085938 L 910.34375 323.199219 L 921.664062 329.878906 L 935.953125 306.125 L 936.878906 304.457031 L 937.808594 302.785156 L 993.296875 210.367188 C 990.140625 207.769531 986.242188 206.46875 982.160156 206.839844 Z M 523.964844 489.847656 L 522.667969 488.921875 L 520.996094 487.621094 L 520.441406 487.25 C 520.625 488.734375 520.253906 490.21875 519.882812 491.519531 C 519.511719 492.445312 519.140625 493.375 518.398438 494.304688 L 505.039062 512.117188 L 503.554688 513.972656 L 502.066406 516.015625 L 460.3125 572.429688 L 459.386719 573.730469 C 459.386719 573.730469 459.199219 573.917969 459.199219 573.917969 C 458.828125 574.472656 458.457031 574.84375 457.898438 575.402344 C 456.601562 576.515625 454.929688 577.257812 453.261719 577.8125 L 456.601562 580.226562 C 459.570312 582.453125 463.839844 581.894531 466.25 578.742188 L 505.039062 526.59375 L 506.523438 524.550781 L 508.007812 522.695312 L 525.449219 499.3125 C 527.492188 496.53125 526.9375 492.074219 523.964844 489.847656 Z M 523.964844 489.847656 "/><g clip-rule="nonzero" clip-path="url(#c6ba20132d)"><path style=" stroke:none;fill-rule:nonzero;fill:#0a0908;fill-opacity:1;" d="M 771.15625 343.242188 L 771.714844 346.953125 L 746.105469 350.292969 L 740.910156 351.035156 L 709.546875 355.117188 L 708.988281 351.40625 L 744.0625 346.765625 L 749.257812 346.023438 Z M 801.964844 301.671875 C 809.386719 294.25 816.996094 286.640625 824.417969 279.214844 C 825.71875 277.917969 827.015625 276.617188 828.5 275.132812 C 828.871094 274.761719 829.058594 274.578125 829.242188 274.207031 C 828.871094 273.648438 828.5 273.277344 828.128906 272.90625 C 826.644531 271.421875 824.976562 269.9375 823.492188 268.265625 C 823.492188 268.265625 823.492188 268.265625 823.492188 268.082031 C 823.304688 267.894531 823.121094 267.710938 822.933594 267.523438 C 821.820312 266.597656 821.078125 266.78125 819.78125 268.082031 C 819.59375 268.265625 819.222656 268.640625 819.035156 268.824219 C 813.65625 274.390625 808.089844 279.773438 802.707031 285.339844 C 801.035156 287.011719 800.292969 286.824219 798.808594 285.339844 C 796.023438 282.371094 792.871094 279.402344 790.085938 276.433594 C 789.160156 275.503906 788.417969 275.132812 787.488281 276.246094 C 786.746094 277.175781 785.820312 278.101562 784.890625 278.84375 C 784.703125 279.03125 784.703125 279.03125 784.519531 279.214844 C 783.777344 279.960938 782.847656 280.703125 782.105469 281.628906 C 781.921875 281.816406 781.921875 281.816406 781.921875 281.816406 C 781.363281 282.371094 781.363281 282.929688 782.105469 283.671875 C 788.046875 289.609375 793.984375 295.546875 799.921875 301.484375 C 800.664062 302.414062 801.222656 302.414062 801.964844 301.671875 Z M 842.792969 403.367188 C 843.164062 402.996094 843.347656 402.8125 843.535156 402.441406 C 843.164062 401.882812 842.792969 401.511719 842.421875 401.140625 C 841.121094 399.84375 839.636719 398.359375 838.335938 397.058594 C 838.152344 396.875 837.964844 396.6875 837.78125 396.503906 C 836.480469 395.019531 835.554688 395.019531 834.253906 396.503906 C 828.6875 402.253906 822.75 407.824219 817.179688 413.761719 C 815.511719 415.433594 814.769531 415.246094 813.285156 413.761719 C 810.5 410.792969 807.34375 407.824219 804.5625 404.855469 C 803.632812 403.925781 802.890625 403.554688 801.964844 404.667969 C 800.480469 406.339844 798.808594 407.824219 797.324219 409.308594 C 797.140625 409.492188 796.769531 409.863281 796.582031 410.050781 C 795.839844 410.792969 795.652344 411.347656 796.582031 412.089844 C 796.953125 412.460938 797.511719 413.019531 797.882812 413.390625 C 803.449219 418.957031 809.015625 424.339844 814.398438 429.90625 C 815.140625 430.648438 815.695312 430.648438 816.4375 429.90625 C 824.234375 422.113281 832.027344 414.316406 839.820312 406.523438 C 840.75 405.410156 841.675781 404.296875 842.792969 403.367188 Z M 796.394531 359.945312 C 795.652344 360.871094 795.46875 361.429688 796.582031 362.171875 C 798.625 363.65625 800.664062 365.324219 802.707031 366.808594 C 803.820312 367.738281 804.375 367.550781 805.117188 366.4375 C 807.160156 363.65625 809.574219 360.871094 811.613281 358.085938 C 812.542969 356.972656 813.097656 356.789062 814.210938 357.714844 C 816.808594 359.945312 819.59375 361.984375 822.378906 364.027344 C 822.933594 364.398438 823.304688 364.953125 824.046875 364.953125 C 824.234375 364.582031 824.605469 364.210938 824.976562 363.839844 C 826.460938 361.984375 827.945312 359.945312 829.429688 358.085938 C 830.355469 356.972656 830.542969 356.230469 829.058594 355.304688 C 826.273438 353.261719 823.675781 351.035156 820.894531 348.996094 C 819.78125 348.066406 819.59375 347.511719 820.523438 346.394531 C 822.75 343.796875 824.789062 341.015625 827.015625 338.230469 C 827.945312 337.117188 828.128906 336.375 826.832031 335.445312 C 824.789062 334.148438 822.933594 332.664062 821.078125 330.992188 C 819.964844 329.878906 819.222656 330.25 818.480469 331.363281 C 816.4375 334.148438 814.027344 336.933594 811.984375 339.714844 C 811.242188 340.828125 810.5 340.828125 809.574219 340.085938 C 806.789062 337.859375 803.820312 335.632812 801.035156 333.40625 C 800.109375 332.664062 799.550781 332.664062 798.808594 333.589844 C 797.324219 335.632812 795.839844 337.675781 794.167969 339.53125 C 793.242188 340.644531 793.242188 341.199219 794.539062 342.128906 C 797.324219 344.167969 799.921875 346.394531 802.707031 348.4375 C 804.003906 349.367188 804.191406 350.109375 803.078125 351.222656 C 800.664062 354.375 798.625 357.34375 796.394531 359.945312 Z M 756.125 554.058594 C 756.683594 558.699219 753.34375 562.96875 748.886719 563.523438 L 746.289062 563.894531 L 740.539062 564.636719 L 723.09375 566.863281 L 718.453125 567.421875 L 711.585938 568.347656 L 660.921875 574.660156 L 659.066406 574.84375 L 657.210938 575.03125 L 649.976562 575.957031 C 649.601562 575.957031 649.230469 575.957031 648.859375 575.957031 C 644.59375 575.957031 641.066406 572.800781 640.511719 568.535156 L 638.46875 552.390625 C 637.910156 547.75 641.253906 543.480469 645.707031 542.925781 L 652.574219 541.996094 L 654.429688 541.8125 L 656.285156 541.625 L 728.472656 532.53125 L 730.332031 532.347656 L 732.1875 532.160156 L 732.371094 532.160156 L 739.050781 531.417969 L 744.804688 530.675781 C 749.445312 530.121094 753.714844 533.460938 754.269531 537.914062 Z M 752.414062 554.617188 L 750.371094 538.285156 C 750 535.6875 747.773438 533.832031 745.175781 534.203125 L 739.792969 534.945312 L 733.113281 535.6875 L 732.929688 535.6875 L 731.074219 535.871094 L 729.21875 536.058594 L 656.839844 545.152344 L 654.984375 545.335938 L 653.128906 545.523438 L 646.078125 546.449219 C 643.480469 546.820312 641.625 549.046875 641.996094 551.648438 L 644.035156 567.976562 C 644.40625 570.574219 646.632812 572.429688 649.230469 572.058594 L 656.285156 571.132812 L 658.140625 570.945312 L 659.996094 570.761719 L 721.609375 562.96875 L 724.949219 562.597656 L 727.730469 562.226562 L 739.050781 560.738281 L 744.992188 559.996094 L 747.960938 559.625 C 750.929688 559.625 752.785156 557.214844 752.414062 554.617188 Z M 661.109375 592.289062 L 662.964844 592.101562 L 703.421875 586.722656 L 719.753906 584.496094 L 731.074219 583.007812 L 730.886719 581.710938 L 730.703125 579.855469 L 730.703125 579.296875 L 662.59375 588.207031 L 660.738281 588.390625 L 658.882812 588.578125 L 643.109375 590.617188 L 643.664062 594.328125 L 659.4375 592.289062 Z M 664.449219 603.792969 L 662.59375 603.980469 L 660.738281 604.164062 L 643.851562 606.394531 L 644.40625 610.105469 L 661.296875 607.878906 L 663.152344 607.691406 L 665.007812 607.507812 L 732.1875 598.597656 L 731.628906 594.886719 Z M 1014.824219 249.339844 C 998.675781 277.359375 982.347656 305.382812 966.203125 333.40625 C 966.203125 333.589844 966.015625 333.777344 966.015625 333.960938 C 965.828125 334.703125 965.457031 335.445312 964.53125 336.003906 C 962.675781 337.117188 960.632812 338.230469 958.777344 339.34375 L 954.324219 341.757812 L 953.953125 338.972656 C 953.765625 338.046875 953.582031 337.117188 953.394531 336.003906 C 952.839844 333.40625 952.097656 330.621094 953.394531 328.582031 C 958.222656 319.488281 963.417969 310.394531 968.613281 301.671875 C 970.46875 298.515625 972.324219 295.363281 973.996094 292.207031 L 1002.203125 243.398438 L 996.265625 240.246094 L 936.695312 342.683594 L 936.136719 342.3125 L 917.023438 375.347656 L 946.160156 596.558594 L 943.5625 599.15625 C 943.5625 599.15625 943.5625 599.339844 943.375 599.339844 L 889.929688 653.902344 C 889.558594 654.273438 888.816406 654.644531 888.257812 654.828125 L 886.589844 656.5 L 886.03125 656.5 L 671.5 684.707031 L 666.675781 647.40625 L 620.652344 653.53125 L 615.269531 612.332031 L 569.617188 623.652344 C 566.648438 624.394531 563.867188 624.765625 560.898438 624.765625 C 544.75 624.765625 530.089844 614.371094 525.265625 598.597656 C 522.851562 594.328125 520.8125 589.132812 519.140625 582.453125 C 514.875 565.378906 510.605469 548.304688 506.335938 531.234375 L 469.222656 580.96875 C 467.179688 583.75 464.023438 585.238281 460.683594 585.238281 C 458.457031 585.238281 456.230469 584.496094 454.375 583.195312 L 441.382812 573.546875 L 425.609375 561.855469 C 423.382812 560.183594 421.898438 557.769531 421.527344 554.988281 C 421.15625 552.203125 421.898438 549.417969 423.566406 547.191406 L 482.582031 467.578125 C 484.253906 465.351562 486.664062 463.867188 489.261719 463.496094 C 485.367188 447.90625 481.46875 432.320312 477.757812 416.730469 C 463.839844 361.058594 449.921875 305.199219 436.1875 249.523438 C 430.0625 225.027344 437.859375 212.039062 461.984375 205.914062 C 515.988281 192.367188 570.359375 178.820312 624.550781 165.457031 C 623.621094 161.746094 622.695312 157.847656 621.765625 153.949219 C 619.726562 144.488281 623.992188 134.835938 632.160156 130.011719 C 641.066406 125 652.386719 127.042969 658.882812 134.835938 C 661.109375 137.804688 662.78125 141.144531 663.707031 144.671875 C 664.636719 148.011719 665.378906 151.539062 666.304688 154.878906 C 667.417969 154.507812 668.71875 154.320312 669.832031 153.949219 C 690.800781 148.753906 702.679688 152.835938 709.917969 168.796875 C 732 164.527344 742.207031 170.839844 747.402344 191.066406 C 750.1875 202.386719 752.972656 213.523438 755.753906 224.84375 C 756.496094 228.183594 757.425781 231.523438 758.167969 235.050781 L 850.027344 222.984375 L 850.214844 224.84375 L 854.855469 260.289062 L 900.878906 254.164062 L 901.0625 256.019531 L 908.484375 312.25 L 910.15625 309.464844 C 914.980469 301.113281 919.621094 292.765625 924.445312 284.597656 L 932.796875 270.125 C 943.375 251.9375 954.136719 233.007812 965.085938 214.449219 C 968.800781 207.953125 974.738281 203.871094 981.417969 203.128906 C 987.355469 202.574219 992.925781 204.800781 997.191406 209.253906 C 999.605469 212.039062 1002.390625 216.492188 1002.019531 220.203125 C 1001.277344 226.511719 1004.058594 229.296875 1009.996094 232.449219 C 1014.824219 235.050781 1017.050781 236.535156 1017.792969 239.132812 C 1018.71875 241.914062 1017.234375 245.070312 1014.824219 249.339844 Z M 855.78125 264 L 871 379.242188 L 903.289062 323.199219 L 902.917969 323.011719 L 906.074219 317.632812 L 898.28125 258.433594 Z M 627.890625 152.652344 C 628.820312 156.363281 629.746094 160.261719 630.675781 163.972656 C 632.714844 163.414062 634.570312 163.042969 636.613281 162.488281 C 635.683594 158.777344 634.757812 154.878906 633.828125 151.167969 C 633.644531 150.609375 633.644531 150.054688 633.457031 149.496094 C 633.085938 144.488281 636.613281 140.03125 641.625 139.660156 C 646.078125 139.105469 650.160156 141.703125 651.460938 145.972656 C 652.386719 150.054688 653.5 153.949219 654.429688 158.035156 C 656.285156 157.476562 658.324219 157.105469 660.179688 156.550781 C 659.4375 153.394531 658.695312 150.238281 657.769531 146.898438 C 656.285156 141.144531 653.5 136.507812 647.5625 134.464844 C 644.777344 133.539062 641.808594 133.351562 639.027344 133.910156 C 631.230469 136.136719 626.035156 144.300781 627.890625 152.652344 Z M 652.757812 217.234375 C 644.777344 218.902344 636.796875 214.265625 634.386719 206.46875 C 634.386719 206.285156 634.199219 205.914062 634.199219 205.542969 L 495.015625 240.058594 C 491.117188 240.988281 487.964844 243.398438 485.921875 246.742188 C 483.882812 250.082031 483.324219 254.164062 484.253906 258.0625 L 491.859375 289.050781 C 493.902344 297.03125 501.882812 301.855469 509.863281 300 L 571.847656 284.597656 L 575.558594 283.855469 L 672.988281 259.730469 C 676.882812 258.804688 680.039062 256.390625 682.078125 253.050781 C 682.820312 251.75 683.378906 250.453125 683.75 248.96875 C 683.9375 248.410156 683.9375 247.667969 684.121094 247.113281 C 684.121094 246.554688 684.308594 245.8125 684.308594 245.253906 C 684.308594 244.140625 684.121094 243.027344 683.9375 241.914062 L 676.328125 210.738281 C 674.84375 204.984375 670.203125 200.902344 664.820312 199.789062 C 664.820312 199.972656 664.820312 199.972656 664.820312 200.160156 C 666.304688 207.210938 660.367188 215.5625 652.757812 217.234375 Z M 637.355469 166.011719 C 635.3125 166.570312 633.457031 166.941406 631.417969 167.5 C 633.085938 173.992188 634.570312 180.675781 636.242188 187.167969 C 636.425781 187.726562 636.613281 188.46875 636.613281 189.023438 C 636.796875 189.582031 636.984375 190.140625 636.984375 190.882812 C 637.355469 192.179688 637.539062 193.480469 637.910156 194.777344 C 638.46875 196.632812 638.839844 198.675781 639.210938 200.53125 L 646.261719 198.859375 C 645.890625 198.675781 645.519531 198.304688 645.148438 198.117188 C 644.777344 197.746094 644.59375 197.003906 644.40625 196.449219 C 643.851562 194.222656 643.292969 191.808594 642.738281 189.582031 C 642.550781 189.023438 642.367188 188.46875 642.367188 187.726562 C 642.179688 187.167969 641.996094 186.425781 641.996094 185.871094 C 640.511719 179.191406 639.027344 172.695312 637.355469 166.011719 Z M 640.140625 150.609375 C 640.882812 153.949219 641.808594 157.476562 642.550781 160.816406 C 644.59375 160.261719 646.449219 159.890625 648.488281 159.332031 C 647.746094 155.992188 646.820312 152.464844 646.078125 149.125 C 645.519531 146.898438 644.59375 145.414062 641.996094 145.972656 C 639.582031 146.714844 639.769531 148.753906 640.140625 150.609375 Z M 658.140625 199.601562 L 640.324219 204.058594 C 640.324219 204.242188 640.324219 204.429688 640.511719 204.429688 C 641.808594 209.253906 647.003906 212.222656 651.832031 210.738281 C 656.65625 209.4375 659.4375 204.429688 658.140625 199.601562 Z M 657.398438 195.890625 C 656.65625 192.738281 655.914062 189.582031 654.984375 186.242188 C 654.800781 185.683594 654.613281 185.128906 654.613281 184.386719 C 654.429688 183.828125 654.242188 183.085938 654.242188 182.53125 C 652.574219 176.035156 651.089844 169.355469 649.417969 162.859375 C 647.375 163.414062 645.519531 163.785156 643.480469 164.34375 C 645.148438 170.839844 646.632812 177.519531 648.304688 184.015625 C 648.488281 184.570312 648.675781 185.3125 648.675781 185.871094 C 648.859375 186.425781 649.046875 186.984375 649.046875 187.726562 C 649.417969 189.394531 649.972656 191.253906 650.347656 192.921875 C 650.71875 194.035156 650.902344 195.335938 650.902344 196.632812 C 650.902344 197.003906 650.71875 197.375 650.53125 197.5625 L 657.398438 195.890625 C 657.210938 196.078125 657.398438 196.078125 657.398438 195.890625 Z M 451.777344 574.289062 C 452.703125 574.101562 453.632812 573.730469 454.558594 573.175781 C 455.117188 572.800781 455.488281 572.429688 456.042969 571.875 C 456.230469 571.6875 456.230469 571.6875 456.414062 571.503906 L 457.15625 570.390625 L 460.128906 566.308594 L 501.140625 511.375 L 502.625 509.335938 L 504.109375 507.480469 L 511.53125 497.457031 L 515.429688 492.074219 C 515.617188 491.890625 515.617188 491.703125 515.800781 491.519531 C 516.730469 490.035156 516.914062 488.363281 516.730469 486.695312 C 516.359375 485.210938 515.617188 483.910156 514.5 482.796875 C 514.316406 482.796875 514.316406 482.609375 514.128906 482.425781 L 509.121094 478.714844 L 507.636719 477.601562 L 505.78125 476.300781 L 500.769531 472.589844 L 498.726562 471.105469 L 498.542969 470.917969 L 496.128906 469.0625 L 495.203125 468.320312 C 494.832031 468.136719 494.644531 467.949219 494.273438 467.765625 C 494.273438 467.765625 494.273438 467.765625 494.089844 467.765625 C 493.347656 467.394531 492.789062 467.207031 492.046875 467.023438 C 491.675781 467.023438 491.304688 467.023438 490.933594 467.023438 C 490.5625 467.023438 490.375 467.023438 490.003906 467.207031 C 488.148438 467.394531 486.480469 468.320312 485.367188 469.804688 L 426.351562 549.234375 C 425.238281 550.71875 424.867188 552.574219 425.054688 554.246094 C 425.238281 556.101562 426.351562 557.585938 427.652344 558.699219 L 431.175781 561.296875 L 433.402344 562.96875 L 437.671875 566.121094 L 446.765625 572.800781 C 448.25 574.101562 449.921875 574.472656 451.777344 574.289062 Z M 514.316406 455.332031 C 514.128906 455.886719 513.757812 456.445312 513.386719 457.1875 C 513.203125 457.371094 513.203125 457.371094 513.203125 457.558594 C 512.832031 457.929688 512.644531 458.300781 512.273438 458.671875 C 509.675781 462.011719 507.078125 465.722656 504.667969 469.0625 L 504.480469 469.25 C 504.296875 469.433594 504.109375 469.804688 503.738281 470.175781 L 508.191406 473.519531 L 514.128906 477.972656 C 514.128906 477.785156 514.316406 477.785156 514.316406 477.601562 C 515.800781 475.558594 517.285156 473.519531 518.769531 471.664062 C 519.699219 470.546875 520.441406 469.433594 521.367188 468.136719 C 521.925781 467.394531 522.296875 466.835938 522.851562 466.09375 C 523.039062 465.722656 523.222656 465.539062 523.59375 465.167969 C 523.78125 464.796875 524.152344 464.425781 524.335938 464.238281 C 526.378906 462.011719 528.605469 462.753906 530.277344 463.683594 C 537.515625 467.949219 545.308594 470.734375 553.472656 472.035156 C 559.96875 472.960938 566.09375 473.332031 572.03125 472.960938 C 580.566406 472.589844 588.546875 470.917969 595.972656 467.949219 C 596.527344 467.765625 597.085938 467.578125 597.828125 467.207031 C 598.382812 467.023438 598.941406 466.652344 599.683594 466.464844 C 612.488281 460.714844 623.4375 451.0625 632.714844 437.703125 C 633.457031 436.585938 634.199219 435.472656 634.941406 434.175781 C 636.054688 432.503906 636.984375 430.648438 637.910156 428.792969 C 638.46875 427.679688 638.839844 426.753906 639.398438 425.636719 C 639.953125 424.523438 640.324219 423.410156 640.882812 422.296875 C 643.851562 414.503906 645.519531 406.152344 645.707031 397.617188 C 645.707031 382.769531 642.179688 369.035156 635.683594 357.160156 C 634.386719 354.746094 632.902344 352.335938 631.417969 349.921875 C 630.675781 348.808594 629.933594 347.695312 629.191406 346.765625 C 628.820312 346.210938 628.449219 345.839844 628.078125 345.28125 C 627.707031 344.726562 627.335938 344.355469 626.960938 343.984375 C 623.992188 340.457031 620.652344 337.117188 617.128906 334.148438 C 606.921875 325.613281 594.300781 319.671875 580.382812 317.445312 C 579.824219 317.261719 579.082031 317.261719 578.527344 317.074219 C 577.96875 317.074219 577.226562 316.890625 576.671875 316.890625 C 575.742188 316.703125 575 316.703125 574.074219 316.519531 C 542.523438 313.734375 512.644531 331.734375 498.542969 358.832031 C 498.171875 359.574219 497.613281 360.5 497.242188 361.242188 C 496.871094 362.171875 496.316406 363.097656 495.945312 364.027344 C 492.976562 370.894531 490.933594 378.5 490.191406 386.296875 C 489.261719 395.945312 489.820312 405.226562 492.046875 413.945312 C 493.160156 418.585938 494.832031 423.226562 496.871094 427.679688 C 498.914062 431.949219 501.324219 436.214844 504.296875 440.300781 C 506.894531 444.011719 509.863281 447.535156 513.386719 450.878906 C 513.757812 451.992188 514.875 453.476562 514.316406 455.332031 Z M 507.820312 522.882812 L 525.265625 499.5 C 527.492188 496.53125 526.9375 492.074219 523.78125 489.847656 L 522.480469 488.921875 L 520.8125 487.621094 L 520.253906 487.25 C 520.441406 488.734375 520.070312 490.21875 519.699219 491.519531 C 519.328125 492.445312 518.957031 493.375 518.214844 494.304688 L 504.851562 512.117188 L 503.367188 513.972656 L 501.882812 516.015625 L 460.3125 572.429688 L 459.386719 573.730469 C 459.386719 573.730469 459.199219 573.917969 459.199219 573.917969 C 458.828125 574.472656 458.457031 574.84375 457.898438 575.402344 C 456.601562 576.515625 454.929688 577.257812 453.261719 577.8125 L 456.601562 580.226562 C 459.570312 582.453125 463.839844 581.894531 466.25 578.742188 L 505.039062 526.59375 L 506.523438 524.550781 Z M 608.589844 535.6875 L 650.347656 524.921875 L 652.203125 524.367188 L 654.058594 523.808594 L 722.164062 506.179688 C 721.792969 504.324219 721.238281 502.46875 720.679688 500.425781 C 720.308594 499.3125 720.125 498.015625 719.753906 496.714844 C 718.824219 493.003906 717.898438 489.105469 716.96875 485.210938 C 716.597656 484.097656 716.410156 482.796875 716.039062 481.496094 C 712.699219 467.765625 708.988281 453.105469 705.460938 438.445312 C 705.089844 437.144531 704.90625 436.03125 704.535156 434.730469 C 703.605469 430.835938 702.679688 427.125 701.75 423.226562 C 701.378906 421.925781 701.195312 420.8125 700.824219 419.515625 C 695.441406 398.171875 690.617188 378.871094 687.460938 366.808594 C 683.191406 350.664062 685.421875 336.933594 694.328125 323.941406 C 697.296875 319.488281 700.265625 314.847656 703.050781 310.207031 C 703.976562 308.910156 704.71875 307.425781 705.648438 306.125 C 706.390625 305.011719 707.132812 303.898438 707.691406 302.785156 C 709.546875 299.628906 711.585938 296.476562 713.628906 293.320312 C 714.554688 292.023438 715.296875 290.535156 716.226562 289.238281 C 716.410156 288.867188 716.78125 288.496094 716.96875 288.125 C 717.898438 286.824219 718.824219 285.339844 719.566406 284.042969 C 720.125 283.113281 720.867188 282.1875 721.421875 281.257812 C 721.609375 281.074219 721.609375 280.886719 721.792969 280.886719 C 722.164062 280.332031 722.535156 279.773438 722.90625 279.214844 C 723.277344 278.472656 723.648438 277.917969 724.019531 277.175781 C 729.21875 267.894531 730.144531 258.433594 727.175781 247.113281 C 726.804688 245.625 726.433594 244.140625 726.0625 242.84375 C 725.875 242.285156 725.691406 241.542969 725.503906 240.988281 C 725.320312 240.429688 725.132812 239.6875 724.949219 239.132812 C 719.753906 219.273438 719.195312 217.046875 716.96875 207.769531 C 715.667969 202.574219 714 195.335938 710.472656 181.601562 C 709.730469 178.449219 708.804688 175.476562 707.875 172.878906 C 707.691406 172.324219 707.503906 171.765625 707.132812 171.210938 C 706.949219 170.652344 706.578125 170.097656 706.390625 169.539062 C 701.9375 159.703125 695.441406 155.4375 685.234375 155.4375 C 681.152344 155.4375 676.511719 156.179688 670.945312 157.476562 C 665.75 158.777344 660.738281 160.074219 655.542969 161.375 C 657.210938 167.871094 658.695312 174.550781 660.367188 181.046875 C 660.550781 181.601562 660.738281 182.34375 660.738281 182.902344 C 660.921875 183.457031 661.109375 184.015625 661.109375 184.757812 C 662.039062 188.28125 662.78125 191.808594 663.707031 195.519531 C 671.316406 196.261719 677.8125 201.832031 679.851562 209.4375 L 687.460938 240.617188 C 687.832031 241.914062 688.019531 243.214844 688.019531 244.511719 C 688.019531 245.070312 688.019531 245.8125 688.019531 246.371094 C 688.019531 246.925781 687.832031 247.667969 687.832031 248.226562 C 687.460938 250.453125 686.71875 252.679688 685.421875 254.71875 C 682.820312 258.988281 678.738281 261.957031 673.914062 263.070312 L 576.113281 287.195312 L 572.402344 287.9375 L 510.789062 303.15625 C 509.304688 303.527344 507.820312 303.714844 506.335938 303.714844 C 497.984375 303.714844 490.375 297.960938 488.335938 289.609375 L 480.726562 258.433594 C 479.613281 253.605469 480.355469 248.597656 482.769531 244.328125 C 485.367188 240.058594 489.449219 237.089844 494.273438 235.976562 L 633.457031 201.460938 C 632.714844 198.304688 631.789062 195.148438 631.046875 191.808594 C 630.859375 191.253906 630.675781 190.695312 630.675781 189.953125 C 630.488281 189.398438 630.304688 188.652344 630.304688 188.097656 C 629.5625 184.941406 628.820312 181.972656 628.078125 178.820312 C 627.148438 175.292969 626.40625 171.953125 625.476562 168.425781 C 571.289062 182.34375 516.730469 196.078125 462.910156 209.4375 C 440.640625 215.007812 434.332031 225.957031 439.898438 248.597656 C 453.816406 304.457031 467.550781 360.128906 481.46875 415.988281 C 485.367188 431.761719 489.261719 447.722656 493.347656 463.683594 C 494.832031 464.054688 496.316406 464.609375 497.613281 465.539062 L 500.769531 467.949219 C 500.953125 467.949219 501.140625 467.949219 501.140625 467.949219 C 501.140625 467.949219 501.324219 467.949219 501.695312 467.207031 L 501.882812 467.023438 C 504.480469 463.3125 507.265625 459.597656 510.046875 455.886719 C 506.335938 451.433594 503.179688 446.980469 500.582031 442.15625 C 489.078125 425.824219 484.066406 407.082031 486.109375 386.109375 C 487.035156 376.273438 489.820312 366.996094 494.089844 358.644531 C 494.460938 357.714844 495.015625 356.972656 495.386719 356.046875 C 495.757812 355.304688 496.316406 354.5625 496.6875 353.820312 C 512.273438 327.46875 542.152344 310.394531 573.886719 313.175781 C 574.445312 313.175781 575.1875 313.363281 575.742188 313.363281 C 576.300781 313.363281 577.042969 313.550781 577.597656 313.550781 C 578.15625 313.550781 578.898438 313.734375 579.453125 313.921875 C 597.828125 316.703125 613.785156 325.242188 625.847656 337.859375 C 626.589844 338.601562 627.335938 339.34375 628.078125 340.273438 C 628.820312 341.199219 629.5625 341.941406 630.304688 342.871094 C 633.457031 346.765625 636.425781 351.035156 638.839844 355.675781 C 648.859375 369.777344 654.613281 387.222656 654.613281 406.710938 C 654.429688 420.257812 650.71875 433.433594 643.664062 444.9375 C 643.109375 445.679688 642.550781 446.609375 642.179688 447.351562 C 641.808594 447.90625 641.4375 448.464844 641.066406 449.023438 C 640.882812 449.207031 640.695312 449.578125 640.511719 449.765625 C 629.746094 464.980469 616.570312 475.558594 601.539062 481.125 C 600.980469 481.3125 600.425781 481.496094 599.683594 481.867188 C 599.125 482.054688 598.570312 482.238281 597.828125 482.425781 C 585.765625 486.136719 572.589844 487.066406 558.113281 485.023438 C 549.390625 483.726562 541.226562 480.753906 533.617188 476.300781 C 532.503906 475.746094 532.503906 475.746094 531.761719 476.671875 C 530.648438 478.34375 529.347656 480.011719 528.234375 481.496094 C 527.863281 482.054688 527.492188 482.609375 526.9375 483.167969 C 526.9375 483.355469 526.75 483.355469 526.75 483.539062 C 526.195312 484.28125 525.820312 484.839844 525.265625 485.582031 C 524.894531 485.953125 524.707031 486.324219 524.523438 486.695312 L 525.820312 487.808594 L 526.007812 487.992188 C 526.9375 488.734375 527.863281 489.664062 528.421875 490.589844 C 529.71875 492.632812 530.277344 495.046875 530.089844 497.457031 C 529.90625 498.757812 529.71875 499.871094 529.164062 501.167969 C 528.792969 501.726562 528.605469 502.28125 528.234375 502.839844 L 508.933594 528.636719 C 513.386719 546.820312 518.027344 564.824219 522.480469 582.824219 C 522.667969 583.75 523.039062 584.492188 523.222656 585.421875 C 524.152344 571.316406 533.058594 558.699219 546.605469 553.132812 C 547.164062 552.945312 547.90625 552.574219 548.648438 552.390625 C 549.390625 552.203125 550.132812 551.832031 550.875 551.648438 C 550.875 551.648438 551.0625 551.648438 551.0625 551.648438 L 605.25 537.726562 L 607.105469 537.171875 Z M 669.832031 643.695312 L 833.882812 622.167969 C 833.699219 621.796875 833.699219 621.609375 833.511719 621.238281 L 827.015625 571.875 L 890.113281 563.523438 C 890.484375 563.523438 891.042969 563.523438 891.414062 563.710938 L 876.011719 447.164062 L 861.164062 472.960938 L 861.347656 473.148438 L 860.605469 473.703125 L 858.75 477.042969 L 857.453125 476.300781 L 855.226562 478.15625 C 853.371094 479.828125 851.511719 481.3125 849.65625 482.796875 C 848.171875 484.097656 846.503906 485.394531 845.019531 486.695312 C 843.347656 487.992188 842.050781 488.734375 840.933594 488.734375 C 840.5625 488.734375 840.191406 488.734375 839.820312 488.550781 C 838.523438 487.992188 837.222656 487.25 835.925781 486.695312 L 826.832031 494.117188 L 828.5 482.796875 C 828.316406 482.613281 828.128906 482.613281 827.945312 482.425781 C 822.191406 479.457031 823.492188 474.816406 824.234375 471.292969 C 824.417969 470.546875 824.605469 469.992188 824.789062 469.433594 C 825.347656 466.652344 825.71875 463.867188 826.273438 460.898438 C 826.273438 460.898438 826.273438 460.898438 826.273438 460.714844 C 826.460938 459.96875 826.460938 459.226562 826.644531 458.671875 L 825.53125 458.113281 L 827.203125 455.144531 L 827.386719 454.03125 L 827.757812 454.21875 L 839.265625 434.359375 L 842.234375 429.351562 L 867.660156 385.367188 L 851.882812 265.296875 L 851.699219 263.441406 L 851.511719 261.585938 L 847.058594 227.996094 L 759.28125 239.503906 L 757.425781 239.6875 L 755.570312 239.875 L 729.773438 243.214844 C 730.144531 244.511719 730.515625 245.8125 730.703125 247.113281 C 733.671875 258.433594 732.929688 268.265625 728.472656 277.546875 C 728.101562 278.289062 727.730469 278.84375 727.359375 279.585938 C 726.988281 280.332031 726.617188 280.886719 726.246094 281.628906 C 725.691406 282.371094 725.320312 283.113281 724.761719 283.855469 C 724.578125 284.042969 724.578125 284.226562 724.390625 284.226562 C 723.464844 285.527344 722.535156 287.011719 721.609375 288.308594 C 721.421875 288.679688 721.050781 289.050781 720.867188 289.609375 L 765.960938 283.671875 L 766.519531 287.382812 L 718.269531 293.691406 C 715.667969 297.773438 713.257812 301.671875 710.84375 305.753906 C 710.660156 306.125 710.472656 306.3125 710.289062 306.683594 L 749.257812 301.484375 L 749.816406 305.199219 L 707.875 310.765625 C 704.535156 316.332031 701.007812 321.898438 697.296875 327.097656 C 689.132812 339.160156 687.089844 351.964844 690.988281 366.996094 C 691.359375 368.851562 691.914062 370.707031 692.472656 372.75 L 692.101562 369.59375 L 730.515625 364.582031 L 732.929688 364.210938 L 735.527344 363.839844 L 779.695312 358.085938 L 780.25 361.800781 L 732.742188 368.109375 L 728.289062 368.851562 L 692.84375 373.492188 C 696 385.554688 700.082031 402.253906 704.535156 420.257812 L 730.703125 416.917969 L 732.558594 416.730469 L 734.414062 416.546875 L 771.34375 411.71875 L 771.898438 415.433594 L 735.527344 420.257812 L 733.671875 420.441406 L 731.816406 420.628906 L 705.648438 423.96875 C 706.578125 427.679688 707.503906 431.578125 708.433594 435.472656 L 734.597656 431.949219 L 736.453125 431.761719 L 738.308594 431.578125 L 780.066406 426.007812 L 780.621094 429.722656 L 739.238281 435.101562 L 737.382812 435.289062 L 735.527344 435.472656 L 709.359375 439 C 712.886719 453.476562 716.597656 468.320312 719.9375 482.054688 L 746.105469 478.714844 L 747.960938 478.527344 L 749.816406 478.34375 L 792.5 472.777344 L 793.054688 476.488281 L 750.742188 482.054688 L 748.886719 482.238281 L 747.03125 482.425781 L 721.050781 485.765625 C 721.980469 489.664062 722.90625 493.558594 723.835938 497.273438 L 748.886719 493.929688 L 750.742188 493.746094 L 752.601562 493.558594 L 775.796875 490.589844 L 776.355469 494.304688 L 752.601562 497.457031 L 750.742188 497.644531 L 748.886719 497.828125 L 724.761719 500.984375 C 725.320312 503.582031 726.0625 505.996094 726.617188 508.40625 L 726.988281 509.890625 L 725.132812 510.449219 L 723.277344 511.003906 L 654.800781 528.820312 L 652.945312 529.378906 L 651.089844 529.933594 L 609.890625 540.699219 L 610.445312 545.707031 L 610.632812 547.5625 L 610.816406 549.417969 L 616.199219 593.402344 L 616.386719 595.257812 L 616.570312 597.113281 L 618.054688 609.175781 L 618.242188 611.03125 L 618.425781 612.886719 L 618.613281 613.628906 L 619.539062 621.054688 L 623.4375 650.746094 L 665.933594 645.179688 L 667.789062 644.992188 Z M 830.355469 459.226562 C 830.355469 459.414062 830.355469 459.597656 830.355469 459.785156 C 830.355469 459.96875 830.355469 459.96875 830.355469 460.15625 C 830.355469 460.527344 830.171875 460.714844 830.171875 461.085938 C 829.613281 464.054688 829.242188 466.835938 828.6875 469.804688 C 828.5 470.546875 828.316406 471.289062 828.128906 472.035156 C 827.203125 475.746094 826.832031 477.414062 829.800781 478.898438 C 830.914062 479.457031 832.027344 480.011719 833.140625 480.753906 C 833.328125 480.753906 833.328125 480.941406 833.511719 480.941406 L 841.492188 467.023438 L 841.863281 466.28125 L 830.914062 459.96875 Z M 888.257812 567.421875 L 831.101562 574.84375 L 836.851562 619.011719 L 837.039062 619.753906 Z M 914.238281 380.726562 L 879.164062 441.597656 L 895.496094 565.378906 L 892.710938 568.164062 C 892.710938 568.164062 892.710938 568.347656 892.527344 568.347656 L 839.078125 622.910156 C 838.707031 623.28125 837.964844 623.652344 837.410156 623.835938 L 835.738281 625.507812 L 835.183594 625.507812 L 670.574219 647.21875 L 675.027344 680.808594 L 885.101562 653.160156 C 884.917969 652.789062 884.917969 652.601562 884.730469 652.230469 L 878.238281 602.867188 L 941.332031 594.515625 C 941.703125 594.515625 942.261719 594.515625 942.632812 594.699219 Z M 919.804688 333.035156 L 910.898438 327.839844 L 908.855469 326.726562 L 906.816406 325.613281 L 906.257812 325.242188 L 871.554688 385.367188 L 868.585938 390.5625 L 831.101562 455.332031 L 837.039062 458.671875 L 843.71875 462.570312 L 845.203125 459.96875 L 871.554688 414.875 L 874.523438 409.679688 L 909.785156 349.550781 L 912.753906 344.355469 Z M 993.480469 210.550781 C 990.328125 207.769531 986.429688 206.46875 982.347656 206.839844 C 976.964844 207.398438 971.953125 210.921875 968.800781 216.304688 C 958.035156 234.863281 947.085938 253.792969 936.507812 271.980469 L 928.15625 286.453125 C 926.671875 289.238281 925.003906 291.835938 923.519531 294.621094 C 923.148438 295.175781 922.960938 295.734375 922.589844 296.289062 C 919.621094 301.300781 916.835938 306.3125 913.867188 311.507812 L 909.785156 318.558594 L 908.300781 321.15625 L 907.929688 321.898438 L 908.300781 322.085938 L 908.484375 322.085938 L 910.527344 323.199219 L 921.847656 329.878906 L 936.136719 306.125 L 937.066406 304.457031 L 937.992188 302.785156 Z M 514.128906 399.101562 C 514.128906 368.851562 538.628906 344.355469 568.875 344.355469 C 572.589844 344.355469 576.300781 344.726562 579.824219 345.46875 C 580.382812 345.652344 581.125 345.839844 581.679688 345.839844 C 582.425781 346.023438 582.980469 346.210938 583.539062 346.394531 C 606.550781 352.890625 623.4375 374.046875 623.4375 399.101562 C 623.4375 419.144531 612.671875 436.585938 596.714844 446.050781 C 596.15625 446.421875 595.601562 446.792969 595.042969 446.980469 C 594.488281 447.351562 593.929688 447.535156 593.371094 447.90625 C 585.949219 451.621094 577.785156 453.660156 568.875 453.660156 C 538.8125 453.847656 514.128906 429.351562 514.128906 399.101562 Z M 517.84375 399.101562 C 517.84375 427.308594 540.667969 450.136719 568.875 450.136719 C 577.597656 450.136719 585.765625 447.90625 592.816406 444.195312 C 593.371094 443.824219 593.929688 443.640625 594.488281 443.269531 C 595.042969 442.898438 595.601562 442.527344 596.15625 442.15625 C 610.261719 433.0625 619.726562 417.289062 619.726562 399.285156 C 619.726562 376.460938 604.691406 357.160156 584.09375 350.664062 C 583.539062 350.480469 582.796875 350.292969 582.238281 350.109375 C 581.679688 349.921875 580.9375 349.738281 580.382812 349.550781 C 576.671875 348.625 572.773438 348.253906 568.875 348.253906 C 540.855469 348.066406 517.84375 370.894531 517.84375 399.101562 Z M 516.914062 442.710938 C 515.988281 441.785156 515.058594 440.855469 514.316406 439.742188 C 513.203125 438.445312 512.273438 437.144531 511.160156 435.84375 C 502.808594 424.339844 497.800781 410.421875 497.800781 395.203125 C 497.800781 390.007812 498.355469 384.996094 499.285156 380.171875 C 499.65625 378.871094 499.839844 377.574219 500.210938 376.273438 C 500.582031 375.160156 500.953125 374.046875 501.324219 372.933594 C 502.253906 370.335938 503.179688 367.738281 504.296875 365.324219 C 515.058594 342.128906 538.070312 325.984375 564.980469 325.425781 C 565.351562 325.425781 565.90625 325.425781 566.277344 325.425781 L 566.648438 325.425781 C 566.835938 325.425781 566.835938 325.425781 567.019531 325.425781 C 570.546875 325.425781 573.886719 325.613281 577.226562 326.167969 C 577.785156 326.355469 578.527344 326.355469 579.082031 326.539062 C 579.640625 326.726562 580.382812 326.726562 580.9375 326.910156 C 594.117188 329.507812 606.179688 336.003906 615.828125 345.652344 C 621.023438 350.851562 625.292969 356.601562 628.632812 363.097656 C 628.632812 363.285156 628.820312 363.285156 628.820312 363.46875 C 629.746094 365.324219 630.675781 367.179688 631.417969 369.222656 C 632.160156 371.078125 632.902344 372.933594 633.457031 374.789062 C 634.015625 376.273438 634.386719 377.945312 634.757812 379.613281 C 635.3125 382.214844 635.871094 384.8125 636.054688 387.59375 C 636.242188 389.265625 636.425781 390.933594 636.425781 392.792969 C 636.425781 393.535156 636.425781 394.277344 636.425781 395.019531 C 636.425781 397.988281 636.242188 400.769531 635.871094 403.554688 C 635.683594 405.597656 635.3125 407.824219 634.757812 409.863281 C 631.972656 422.855469 625.664062 434.730469 616.199219 444.195312 C 610.816406 449.578125 604.691406 454.03125 597.828125 457.558594 C 597.269531 457.929688 596.714844 458.113281 596.15625 458.484375 C 595.601562 458.671875 595.042969 459.042969 594.300781 459.226562 C 585.765625 462.941406 576.484375 464.796875 567.019531 464.980469 L 566.835938 464.980469 C 553.101562 464.980469 540.296875 460.898438 529.347656 454.03125 C 525.636719 451.621094 522.109375 448.835938 518.957031 445.867188 C 518.585938 444.382812 517.84375 443.640625 516.914062 442.710938 Z M 514.875 434.546875 C 515.800781 435.660156 516.730469 436.773438 517.65625 437.886719 C 529.71875 451.804688 547.535156 460.527344 567.207031 460.527344 L 567.207031 462.382812 L 567.207031 460.527344 C 576.671875 460.527344 585.765625 458.484375 594.117188 454.773438 C 594.671875 454.589844 595.230469 454.21875 595.972656 454.03125 C 596.527344 453.660156 597.085938 453.476562 597.640625 453.105469 C 603.578125 449.949219 608.960938 446.050781 613.785156 441.042969 C 626.21875 428.609375 632.902344 411.90625 632.902344 394.277344 C 632.902344 393.535156 632.902344 392.976562 632.902344 392.234375 C 632.714844 387.964844 632.160156 383.699219 631.230469 379.429688 C 629.933594 374.234375 628.078125 369.035156 625.664062 364.210938 C 615.640625 350.292969 600.238281 340.644531 582.609375 337.859375 C 582.050781 337.675781 581.308594 337.675781 580.753906 337.675781 C 580.195312 337.675781 579.453125 337.488281 578.898438 337.488281 C 576.855469 337.304688 574.628906 337.117188 572.402344 337.117188 C 572.21875 337.117188 572.21875 337.117188 572.03125 337.117188 L 571.660156 337.117188 C 538.257812 337.304688 510.789062 363.097656 507.265625 395.945312 C 507.078125 397.988281 506.894531 400.027344 506.894531 402.253906 C 506.894531 402.625 506.894531 402.996094 506.894531 403.367188 C 506.894531 406.523438 507.078125 409.492188 507.449219 412.460938 C 508.007812 417.101562 509.121094 421.554688 510.789062 425.824219 C 511.71875 428.421875 512.832031 430.835938 514.128906 433.246094 C 514.5 433.988281 514.6875 434.359375 514.875 434.546875 Z M 514.875 434.546875 "/></g></g></svg>