<svg xmlns="http://www.w3.org/2000/svg" xmlns:xlink="http://www.w3.org/1999/xlink" width="1920" zoomAndPan="magnify" viewBox="0 0 1440 809.999993" height="1080" preserveAspectRatio="xMidYMid meet" version="1.2"><defs><clipPath id="e8b97fb6b3"><path d="M 738 216.871094 L 854.628906 216.871094 L 854.628906 333 L 738 333 Z M 738 216.871094 "/></clipPath><clipPath id="7155a3fd16"><path d="M 548 323 L 854.628906 323 L 854.628906 540.871094 L 548 540.871094 Z M 548 323 "/></clipPath><clipPath id="e77ba8e54a"><path d="M 430.066406 95 L 1009 95 L 1009 663 L 430.066406 663 Z M 430.066406 95 "/></clipPath></defs><g id="31a40bb031"><path style=" stroke:none;fill-rule:nonzero;fill:#1b0881;fill-opacity:1;" d="M 725.25 423.253906 L 744.042969 423.253906 L 744.042969 442.046875 L 725.25 442.046875 Z M 725.25 423.253906 "/><path style=" stroke:none;fill-rule:nonzero;fill:#1b0881;fill-opacity:1;" d="M 658.519531 356.519531 L 677.3125 356.519531 L 677.3125 375.257812 L 658.519531 375.257812 Z M 658.519531 356.519531 "/><path style=" stroke:none;fill-rule:nonzero;fill:#1b0881;fill-opacity:1;" d="M 658.519531 423.253906 L 677.3125 423.253906 L 677.3125 442.046875 L 658.519531 442.046875 Z M 658.519531 423.253906 "/><path style=" stroke:none;fill-rule:nonzero;fill:#1b0881;fill-opacity:1;" d="M 658.519531 489.984375 L 677.3125 489.984375 L 677.3125 508.777344 L 658.519531 508.777344 Z M 658.519531 489.984375 "/><path style=" stroke:none;fill-rule:nonzero;fill:#1b0881;fill-opacity:1;" d="M 725.25 489.984375 L 744.042969 489.984375 L 744.042969 508.777344 L 725.25 508.777344 Z M 725.25 489.984375 "/><path style=" stroke:none;fill-rule:nonzero;fill:#1b0881;fill-opacity:1;" d="M 591.789062 489.984375 L 610.582031 489.984375 L 610.582031 508.777344 L 591.789062 508.777344 Z M 591.789062 489.984375 "/><path style=" stroke:none;fill-rule:nonzero;fill:#1b0881;fill-opacity:1;" d="M 591.789062 356.519531 L 610.582031 356.519531 L 610.582031 375.257812 L 591.789062 375.257812 Z M 591.789062 356.519531 "/><path style=" stroke:none;fill-rule:nonzero;fill:#1b0881;fill-opacity:1;" d="M 727.273438 274.640625 C 727.273438 270.476562 727.738281 266.371094 728.429688 262.378906 L 633.769531 262.378906 L 633.769531 276.835938 C 633.769531 285.800781 626.484375 293.085938 617.519531 293.085938 C 608.558594 293.085938 601.273438 285.800781 601.273438 276.835938 L 601.273438 262.378906 L 589.996094 262.378906 C 566.921875 262.378906 548.128906 281.171875 548.128906 304.246094 L 548.128906 312.226562 L 738.433594 312.226562 C 731.378906 301.355469 727.273438 288.460938 727.273438 274.640625 Z M 727.273438 274.640625 "/><path style=" stroke:none;fill-rule:nonzero;fill:#1b0881;fill-opacity:1;" d="M 617.519531 281.519531 C 620.121094 281.519531 622.203125 279.4375 622.203125 276.835938 L 622.203125 249.773438 C 622.203125 247.171875 620.121094 245.089844 617.519531 245.089844 C 614.917969 245.089844 612.835938 247.171875 612.835938 249.773438 L 612.835938 276.835938 C 612.835938 279.4375 614.917969 281.519531 617.519531 281.519531 Z M 617.519531 281.519531 "/><path style=" stroke:none;fill-rule:nonzero;fill:#1b0881;fill-opacity:1;" d="M 591.789062 423.253906 L 610.582031 423.253906 L 610.582031 442.046875 L 591.789062 442.046875 Z M 591.789062 423.253906 "/><path style=" stroke:none;fill-rule:nonzero;fill:#1b0881;fill-opacity:1;" d="M 725.25 356.519531 L 744.042969 356.519531 L 744.042969 375.257812 L 725.25 375.257812 Z M 725.25 356.519531 "/><g clip-rule="nonzero" clip-path="url(#e8b97fb6b3)"><path style=" stroke:none;fill-rule:nonzero;fill:#1b0881;fill-opacity:1;" d="M 796.550781 216.871094 C 764.6875 216.871094 738.78125 242.777344 738.78125 274.640625 C 738.78125 306.5 764.6875 332.40625 796.550781 332.40625 C 828.414062 332.40625 854.320312 306.5 854.320312 274.640625 C 854.320312 242.777344 828.414062 216.871094 796.550781 216.871094 Z M 816.558594 301.125 C 813.898438 304.535156 808.519531 307.136719 802.332031 308.351562 L 802.332031 315.234375 C 802.332031 318.414062 799.730469 321.015625 796.550781 321.015625 C 793.371094 321.015625 790.769531 318.414062 790.769531 315.234375 L 790.769531 308.757812 C 785.273438 308.121094 779.953125 306.269531 775.214844 303.261719 C 772.496094 301.585938 771.683594 298 773.421875 295.285156 C 775.097656 292.566406 778.683594 291.753906 781.398438 293.492188 C 787.066406 297.074219 792.617188 297.652344 796.320312 297.480469 C 802.679688 297.191406 806.785156 294.820312 807.480469 294.011719 C 808.867188 292.21875 809.386719 290.136719 808.867188 288.285156 C 808.175781 285.972656 805.859375 283.949219 802.21875 282.621094 C 801.234375 282.273438 800.078125 281.867188 798.804688 281.460938 C 797.476562 281.058594 796.089844 280.59375 794.640625 280.074219 C 787.644531 277.644531 779.085938 273.65625 775.445312 264.867188 C 773.304688 259.71875 774.054688 253.9375 777.527344 249.078125 C 780.648438 244.683594 785.507812 241.679688 790.769531 240.578125 L 790.769531 233.988281 C 790.769531 230.808594 793.371094 228.203125 796.550781 228.203125 C 799.730469 228.203125 802.332031 230.808594 802.332031 233.988281 L 802.332031 241.273438 C 806.207031 242.257812 810.488281 243.875 813.609375 246.015625 C 816.269531 247.808594 816.90625 251.449219 815.113281 254.054688 C 813.320312 256.65625 809.675781 257.347656 807.074219 255.554688 C 804.414062 253.707031 799.09375 252.085938 796.03125 251.796875 C 792.214844 251.566406 788.859375 253.128906 787.007812 255.730469 C 786.199219 256.828125 785.449219 258.5625 786.199219 260.414062 C 788.109375 264.980469 793.773438 267.46875 798.515625 269.144531 C 799.847656 269.609375 801.175781 270.011719 802.390625 270.417969 C 803.835938 270.878906 805.167969 271.285156 806.265625 271.691406 C 813.4375 274.292969 818.292969 279.035156 820.027344 285.046875 C 821.589844 290.484375 820.375 296.324219 816.617188 301.066406 Z M 816.558594 301.125 "/></g><path style=" stroke:none;fill-rule:nonzero;fill:#1b0881;fill-opacity:1;" d="M 791.925781 423.253906 L 810.71875 423.253906 L 810.71875 442.046875 L 791.925781 442.046875 Z M 791.925781 423.253906 "/><path style=" stroke:none;fill-rule:nonzero;fill:#1b0881;fill-opacity:1;" d="M 791.925781 356.519531 L 810.71875 356.519531 L 810.71875 375.257812 L 791.925781 375.257812 Z M 791.925781 356.519531 "/><path style=" stroke:none;fill-rule:nonzero;fill:#1b0881;fill-opacity:1;" d="M 791.925781 489.984375 L 810.71875 489.984375 L 810.71875 508.777344 L 791.925781 508.777344 Z M 791.925781 489.984375 "/><g clip-rule="nonzero" clip-path="url(#7155a3fd16)"><path style=" stroke:none;fill-rule:nonzero;fill:#1b0881;fill-opacity:1;" d="M 796.550781 343.972656 C 777.527344 343.972656 760.292969 336.28125 747.746094 323.792969 L 548.1875 323.792969 L 548.1875 498.832031 C 548.1875 521.902344 566.980469 540.699219 590.054688 540.699219 L 812.453125 540.699219 C 835.527344 540.699219 854.320312 521.902344 854.320312 498.832031 L 854.320312 323.792969 L 845.355469 323.792969 C 832.808594 336.222656 815.574219 343.972656 796.550781 343.972656 Z M 622.089844 514.503906 C 622.089844 517.683594 619.488281 520.285156 616.304688 520.285156 L 585.949219 520.285156 C 582.765625 520.285156 580.164062 517.683594 580.164062 514.503906 L 580.164062 484.144531 C 580.164062 480.964844 582.765625 478.359375 585.949219 478.359375 L 616.304688 478.359375 C 619.488281 478.359375 622.089844 480.964844 622.089844 484.144531 Z M 622.089844 447.769531 C 622.089844 450.953125 619.488281 453.554688 616.304688 453.554688 L 585.949219 453.554688 C 582.765625 453.554688 580.164062 450.953125 580.164062 447.769531 L 580.164062 417.414062 C 580.164062 414.230469 582.765625 411.628906 585.949219 411.628906 L 616.304688 411.628906 C 619.488281 411.628906 622.089844 414.230469 622.089844 417.414062 Z M 622.089844 381.039062 C 622.089844 384.21875 619.488281 386.820312 616.304688 386.820312 L 585.949219 386.820312 C 582.765625 386.820312 580.164062 384.21875 580.164062 381.039062 L 580.164062 350.738281 C 580.164062 347.558594 582.765625 344.957031 585.949219 344.957031 L 616.304688 344.957031 C 619.488281 344.957031 622.089844 347.558594 622.089844 350.738281 Z M 688.820312 514.503906 C 688.820312 517.683594 686.21875 520.285156 683.039062 520.285156 L 652.679688 520.285156 C 649.5 520.285156 646.898438 517.683594 646.898438 514.503906 L 646.898438 484.144531 C 646.898438 480.964844 649.5 478.359375 652.679688 478.359375 L 683.039062 478.359375 C 686.21875 478.359375 688.820312 480.964844 688.820312 484.144531 Z M 688.820312 447.769531 C 688.820312 450.953125 686.21875 453.554688 683.039062 453.554688 L 652.679688 453.554688 C 649.5 453.554688 646.898438 450.953125 646.898438 447.769531 L 646.898438 417.414062 C 646.898438 414.230469 649.5 411.628906 652.679688 411.628906 L 683.039062 411.628906 C 686.21875 411.628906 688.820312 414.230469 688.820312 417.414062 Z M 688.820312 381.039062 C 688.820312 384.21875 686.21875 386.820312 683.039062 386.820312 L 652.679688 386.820312 C 649.5 386.820312 646.898438 384.21875 646.898438 381.039062 L 646.898438 350.738281 C 646.898438 347.558594 649.5 344.957031 652.679688 344.957031 L 683.039062 344.957031 C 686.21875 344.957031 688.820312 347.558594 688.820312 350.738281 Z M 755.550781 514.503906 C 755.550781 517.683594 752.949219 520.285156 749.769531 520.285156 L 719.410156 520.285156 C 716.230469 520.285156 713.628906 517.683594 713.628906 514.503906 L 713.628906 484.144531 C 713.628906 480.964844 716.230469 478.359375 719.410156 478.359375 L 749.769531 478.359375 C 752.949219 478.359375 755.550781 480.964844 755.550781 484.144531 Z M 755.550781 447.769531 C 755.550781 450.953125 752.949219 453.554688 749.769531 453.554688 L 719.410156 453.554688 C 716.230469 453.554688 713.628906 450.953125 713.628906 447.769531 L 713.628906 417.414062 C 713.628906 414.230469 716.230469 411.628906 719.410156 411.628906 L 749.769531 411.628906 C 752.949219 411.628906 755.550781 414.230469 755.550781 417.414062 Z M 755.550781 381.039062 C 755.550781 384.21875 752.949219 386.820312 749.769531 386.820312 L 719.410156 386.820312 C 716.230469 386.820312 713.628906 384.21875 713.628906 381.039062 L 713.628906 350.738281 C 713.628906 347.558594 716.230469 344.957031 719.410156 344.957031 L 749.769531 344.957031 C 752.949219 344.957031 755.550781 347.558594 755.550781 350.738281 Z M 822.285156 514.503906 C 822.285156 517.683594 819.679688 520.285156 816.5 520.285156 L 786.140625 520.285156 C 782.960938 520.285156 780.359375 517.683594 780.359375 514.503906 L 780.359375 484.144531 C 780.359375 480.964844 782.960938 478.359375 786.140625 478.359375 L 816.5 478.359375 C 819.679688 478.359375 822.285156 480.964844 822.285156 484.144531 Z M 822.285156 447.769531 C 822.285156 450.953125 819.679688 453.554688 816.5 453.554688 L 786.140625 453.554688 C 782.960938 453.554688 780.359375 450.953125 780.359375 447.769531 L 780.359375 417.414062 C 780.359375 414.230469 782.960938 411.628906 786.140625 411.628906 L 816.5 411.628906 C 819.679688 411.628906 822.285156 414.230469 822.285156 417.414062 Z M 822.285156 381.039062 C 822.285156 384.21875 819.679688 386.820312 816.5 386.820312 L 786.140625 386.820312 C 782.960938 386.820312 780.359375 384.21875 780.359375 381.039062 L 780.359375 350.738281 C 780.359375 347.558594 782.960938 344.957031 786.140625 344.957031 L 816.5 344.957031 C 819.679688 344.957031 822.285156 347.558594 822.285156 350.738281 Z M 822.285156 381.039062 "/></g><path style=" stroke:none;fill-rule:nonzero;fill:#4eb1fc;fill-opacity:1;" d="M 925.492188 225.167969 C 926.160156 226.777344 926.785156 228.402344 927.375 230.042969 C 927.960938 231.6875 928.507812 233.339844 929.015625 235.007812 C 929.519531 236.675781 929.984375 238.355469 930.410156 240.046875 C 930.832031 241.738281 931.214844 243.441406 931.554688 245.148438 C 931.894531 246.859375 932.191406 248.578125 932.449219 250.300781 C 932.703125 252.027344 932.917969 253.753906 933.089844 255.488281 C 933.257812 257.226562 933.386719 258.964844 933.472656 260.703125 C 933.558594 262.445312 933.601562 264.1875 933.601562 265.929688 C 933.601562 267.675781 933.558594 269.417969 933.472656 271.15625 C 933.386719 272.898438 933.257812 274.636719 933.089844 276.371094 C 932.917969 278.105469 932.703125 279.835938 932.449219 281.5625 C 932.191406 283.285156 931.894531 285.003906 931.554688 286.710938 C 931.214844 288.421875 930.832031 290.121094 930.410156 291.8125 C 929.984375 293.503906 929.519531 295.183594 929.015625 296.851562 C 928.507812 298.519531 927.960938 300.175781 927.375 301.816406 C 926.785156 303.457031 926.160156 305.085938 925.492188 306.695312 C 924.824219 308.304688 924.121094 309.898438 923.375 311.476562 C 922.628906 313.050781 921.84375 314.609375 921.023438 316.144531 C 920.203125 317.683594 919.34375 319.199219 918.445312 320.695312 C 917.550781 322.191406 916.617188 323.664062 915.648438 325.113281 C 914.679688 326.5625 913.675781 327.984375 912.636719 329.386719 C 911.601562 330.785156 910.527344 332.160156 909.421875 333.507812 C 908.316406 334.855469 907.175781 336.175781 906.007812 337.46875 C 904.835938 338.757812 903.632812 340.019531 902.402344 341.253906 C 901.167969 342.488281 899.90625 343.6875 898.613281 344.859375 C 897.324219 346.03125 896.003906 347.167969 894.65625 348.273438 C 893.308594 349.378906 891.933594 350.453125 890.535156 351.492188 C 889.132812 352.527344 887.707031 353.53125 886.257812 354.5 C 884.808594 355.46875 883.335938 356.402344 881.84375 357.296875 C 880.347656 358.195312 878.832031 359.054688 877.292969 359.875 C 875.753906 360.699219 874.199219 361.480469 872.621094 362.226562 C 871.046875 362.972656 869.453125 363.679688 867.84375 364.34375 C 866.234375 365.011719 864.605469 365.640625 862.964844 366.226562 C 861.324219 366.8125 859.667969 367.359375 858 367.867188 C 856.332031 368.371094 854.652344 368.835938 852.960938 369.261719 C 851.269531 369.683594 849.570312 370.066406 847.859375 370.40625 C 846.148438 370.746094 844.433594 371.042969 842.707031 371.300781 C 840.984375 371.554688 839.253906 371.769531 837.519531 371.941406 C 835.785156 372.113281 834.046875 372.238281 832.304688 372.324219 C 830.5625 372.410156 828.820312 372.453125 827.078125 372.453125 C 825.335938 372.453125 823.59375 372.410156 821.851562 372.324219 C 820.109375 372.238281 818.371094 372.113281 816.636719 371.941406 C 814.902344 371.769531 813.171875 371.554688 811.449219 371.300781 C 809.722656 371.042969 808.007812 370.746094 806.296875 370.40625 C 804.585938 370.066406 802.886719 369.683594 801.195312 369.261719 C 799.503906 368.835938 797.824219 368.371094 796.15625 367.867188 C 794.488281 367.359375 792.832031 366.8125 791.191406 366.226562 C 789.550781 365.640625 787.925781 365.011719 786.3125 364.34375 C 784.703125 363.679688 783.109375 362.972656 781.535156 362.226562 C 779.957031 361.480469 778.402344 360.699219 776.863281 359.875 C 775.328125 359.054688 773.808594 358.195312 772.316406 357.296875 C 770.820312 356.402344 769.347656 355.46875 767.898438 354.5 C 766.449219 353.53125 765.023438 352.527344 763.625 351.492188 C 762.222656 350.453125 760.847656 349.378906 759.5 348.273438 C 758.152344 347.167969 756.835938 346.03125 755.542969 344.859375 C 754.25 343.6875 752.988281 342.488281 751.757812 341.253906 C 750.523438 340.019531 749.320312 338.757812 748.152344 337.46875 C 746.980469 336.175781 745.839844 334.855469 744.734375 333.507812 C 743.628906 332.160156 742.558594 330.785156 741.519531 329.386719 C 740.480469 327.984375 739.476562 326.5625 738.507812 325.113281 C 737.539062 323.664062 736.609375 322.191406 735.710938 320.695312 C 734.816406 319.199219 733.957031 317.683594 733.132812 316.144531 C 732.3125 314.609375 731.527344 313.050781 730.785156 311.476562 C 730.039062 309.898438 729.332031 308.304688 728.664062 306.695312 C 727.996094 305.085938 727.371094 303.457031 726.78125 301.816406 C 726.195312 300.175781 725.648438 298.519531 725.144531 296.851562 C 724.636719 295.183594 724.171875 293.503906 723.75 291.8125 C 723.324219 290.121094 722.941406 288.421875 722.601562 286.710938 C 722.261719 285.003906 721.964844 283.285156 721.710938 281.5625 C 721.453125 279.835938 721.238281 278.105469 721.070312 276.371094 C 720.898438 274.636719 720.769531 272.898438 720.683594 271.15625 C 720.597656 269.417969 720.554688 267.675781 720.554688 265.929688 C 720.554688 264.1875 720.597656 262.445312 720.683594 260.703125 C 720.769531 258.964844 720.898438 257.226562 721.070312 255.488281 C 721.238281 253.753906 721.453125 252.027344 721.710938 250.300781 C 721.964844 248.578125 722.261719 246.859375 722.601562 245.148438 C 722.941406 243.441406 723.324219 241.738281 723.75 240.046875 C 724.171875 238.355469 724.636719 236.675781 725.144531 235.007812 C 725.648438 233.339844 726.195312 231.6875 726.78125 230.042969 C 727.371094 228.402344 727.996094 226.777344 728.664062 225.167969 C 729.332031 223.554688 730.039062 221.960938 730.785156 220.386719 C 731.527344 218.8125 732.3125 217.253906 733.132812 215.714844 C 733.957031 214.179688 734.816406 212.664062 735.710938 211.167969 C 736.609375 209.671875 737.539062 208.199219 738.507812 206.75 C 739.476562 205.300781 740.480469 203.875 741.519531 202.476562 C 742.558594 201.074219 743.628906 199.703125 744.734375 198.355469 C 745.839844 197.007812 746.980469 195.6875 748.152344 194.394531 C 749.320312 193.101562 750.523438 191.839844 751.757812 190.609375 C 752.988281 189.375 754.25 188.175781 755.542969 187.003906 C 756.835938 185.832031 758.152344 184.695312 759.5 183.589844 C 760.847656 182.480469 762.222656 181.410156 763.625 180.371094 C 765.023438 179.332031 766.449219 178.328125 767.898438 177.359375 C 769.347656 176.390625 770.820312 175.460938 772.316406 174.5625 C 773.808594 173.667969 775.328125 172.808594 776.863281 171.988281 C 778.402344 171.164062 779.957031 170.382812 781.535156 169.636719 C 783.109375 168.890625 784.703125 168.183594 786.3125 167.515625 C 787.925781 166.851562 789.550781 166.222656 791.191406 165.636719 C 792.832031 165.046875 794.488281 164.5 796.15625 163.996094 C 797.824219 163.488281 799.503906 163.023438 801.195312 162.601562 C 802.886719 162.175781 804.585938 161.796875 806.296875 161.457031 C 808.007812 161.117188 809.722656 160.816406 811.449219 160.5625 C 813.171875 160.304688 814.902344 160.09375 816.636719 159.921875 C 818.371094 159.75 820.109375 159.621094 821.851562 159.535156 C 823.59375 159.453125 825.335938 159.410156 827.078125 159.410156 C 828.820312 159.410156 830.5625 159.453125 832.304688 159.535156 C 834.046875 159.621094 835.785156 159.75 837.519531 159.921875 C 839.253906 160.09375 840.984375 160.304688 842.707031 160.5625 C 844.433594 160.816406 846.148438 161.117188 847.859375 161.457031 C 849.570312 161.796875 851.269531 162.175781 852.960938 162.601562 C 854.652344 163.023438 856.332031 163.488281 858 163.996094 C 859.667969 164.5 861.324219 165.046875 862.964844 165.636719 C 864.605469 166.222656 866.234375 166.851562 867.84375 167.515625 C 869.453125 168.183594 871.046875 168.890625 872.621094 169.636719 C 874.199219 170.382812 875.753906 171.164062 877.292969 171.988281 C 878.832031 172.808594 880.347656 173.667969 881.84375 174.5625 C 883.335938 175.460938 884.808594 176.390625 886.257812 177.359375 C 887.707031 178.328125 889.132812 179.332031 890.535156 180.371094 C 891.933594 181.410156 893.308594 182.480469 894.65625 183.589844 C 896.003906 184.695312 897.324219 185.832031 898.613281 187.003906 C 899.90625 188.175781 901.167969 189.375 902.402344 190.609375 C 903.632812 191.839844 904.835938 193.101562 906.007812 194.394531 C 907.175781 195.6875 908.316406 197.007812 909.421875 198.355469 C 910.527344 199.703125 911.601562 201.074219 912.636719 202.476562 C 913.675781 203.875 914.679688 205.300781 915.648438 206.75 C 916.617188 208.199219 917.550781 209.671875 918.445312 211.167969 C 919.34375 212.664062 920.203125 214.179688 921.023438 215.714844 C 921.84375 217.253906 922.628906 218.8125 923.375 220.386719 C 924.121094 221.960938 924.824219 223.554688 925.492188 225.167969 Z M 925.492188 225.167969 "/><path style=" stroke:none;fill-rule:evenodd;fill:#ff3e78;fill-opacity:1;" d="M 822.554688 372.351562 C 765.824219 369.984375 720.554688 323.246094 720.554688 265.933594 C 720.554688 208.617188 765.824219 161.882812 822.554688 159.511719 C 879.289062 161.882812 924.558594 208.617188 924.558594 265.933594 C 924.558594 323.246094 879.289062 369.984375 822.554688 372.351562 Z M 822.554688 372.351562 "/><path style=" stroke:none;fill-rule:nonzero;fill:#85caff;fill-opacity:1;" d="M 618.15625 515.941406 C 618.539062 516.992188 618.894531 518.054688 619.222656 519.128906 C 619.554688 520.199219 619.855469 521.277344 620.132812 522.363281 C 620.410156 523.449219 620.660156 524.542969 620.882812 525.640625 C 621.105469 526.742188 621.300781 527.84375 621.46875 528.953125 C 621.636719 530.058594 621.777344 531.171875 621.894531 532.289062 C 622.007812 533.402344 622.09375 534.519531 622.152344 535.640625 C 622.210938 536.757812 622.242188 537.878906 622.246094 539 C 622.253906 540.121094 622.230469 541.242188 622.179688 542.359375 C 622.128906 543.480469 622.050781 544.597656 621.941406 545.714844 C 621.835938 546.832031 621.703125 547.941406 621.542969 549.050781 C 621.382812 550.160156 621.195312 551.265625 620.980469 552.367188 C 620.765625 553.46875 620.527344 554.5625 620.257812 555.648438 C 619.988281 556.738281 619.695312 557.820312 619.375 558.894531 C 619.050781 559.96875 618.703125 561.03125 618.332031 562.089844 C 617.957031 563.148438 617.558594 564.195312 617.132812 565.230469 C 616.707031 566.269531 616.257812 567.292969 615.78125 568.308594 C 615.304688 569.324219 614.804688 570.328125 614.28125 571.316406 C 613.757812 572.308594 613.207031 573.285156 612.636719 574.25 C 612.0625 575.214844 611.46875 576.160156 610.847656 577.097656 C 610.226562 578.03125 609.585938 578.949219 608.921875 579.851562 C 608.257812 580.753906 607.570312 581.640625 606.863281 582.511719 C 606.15625 583.378906 605.425781 584.230469 604.675781 585.0625 C 603.929688 585.898438 603.15625 586.710938 602.367188 587.507812 C 601.578125 588.304688 600.769531 589.078125 599.941406 589.835938 C 599.113281 590.589844 598.269531 591.328125 597.40625 592.039062 C 596.542969 592.753906 595.660156 593.449219 594.761719 594.117188 C 593.863281 594.789062 592.949219 595.4375 592.019531 596.066406 C 591.089844 596.691406 590.148438 597.292969 589.1875 597.875 C 588.226562 598.453125 587.253906 599.011719 586.269531 599.542969 C 585.28125 600.074219 584.28125 600.582031 583.269531 601.066406 C 582.261719 601.546875 581.238281 602.007812 580.203125 602.4375 C 579.167969 602.871094 578.125 603.28125 577.070312 603.660156 C 576.015625 604.042969 574.953125 604.398438 573.882812 604.726562 C 572.8125 605.058594 571.730469 605.359375 570.644531 605.636719 C 569.558594 605.914062 568.46875 606.164062 567.367188 606.386719 C 566.269531 606.609375 565.167969 606.804688 564.058594 606.972656 C 562.949219 607.140625 561.839844 607.28125 560.722656 607.398438 C 559.609375 607.511719 558.492188 607.597656 557.371094 607.65625 C 556.253906 607.714844 555.132812 607.746094 554.011719 607.75 C 552.890625 607.753906 551.769531 607.734375 550.648438 607.683594 C 549.53125 607.632812 548.410156 607.550781 547.296875 607.445312 C 546.179688 607.339844 545.066406 607.207031 543.957031 607.046875 C 542.847656 606.886719 541.742188 606.699219 540.644531 606.484375 C 539.542969 606.269531 538.449219 606.03125 537.359375 605.761719 C 536.273438 605.492188 535.191406 605.199219 534.117188 604.878906 C 533.042969 604.554688 531.976562 604.207031 530.921875 603.835938 C 529.863281 603.460938 528.816406 603.0625 527.78125 602.636719 C 526.742188 602.210938 525.714844 601.761719 524.699219 601.285156 C 523.6875 600.808594 522.683594 600.308594 521.691406 599.785156 C 520.703125 599.261719 519.726562 598.710938 518.761719 598.140625 C 517.796875 597.566406 516.847656 596.96875 515.914062 596.351562 C 514.980469 595.730469 514.0625 595.089844 513.15625 594.425781 C 512.253906 593.761719 511.371094 593.074219 510.5 592.367188 C 509.628906 591.660156 508.78125 590.929688 507.945312 590.179688 C 507.113281 589.429688 506.296875 588.660156 505.503906 587.871094 C 504.707031 587.082031 503.929688 586.273438 503.175781 585.445312 C 502.417969 584.617188 501.683594 583.773438 500.96875 582.910156 C 500.253906 582.042969 499.5625 581.164062 498.890625 580.265625 C 498.21875 579.367188 497.570312 578.453125 496.945312 577.523438 C 496.320312 576.59375 495.714844 575.652344 495.136719 574.691406 C 494.554688 573.730469 494 572.757812 493.46875 571.773438 C 492.9375 570.785156 492.429688 569.785156 491.945312 568.773438 C 491.460938 567.761719 491.003906 566.742188 490.570312 565.707031 C 490.136719 564.671875 489.730469 563.628906 489.347656 562.574219 C 488.96875 561.519531 488.613281 560.457031 488.28125 559.386719 C 487.953125 558.316406 487.652344 557.234375 487.375 556.148438 C 487.097656 555.0625 486.847656 553.972656 486.625 552.871094 C 486.402344 551.773438 486.207031 550.671875 486.039062 549.5625 C 485.871094 548.453125 485.726562 547.34375 485.613281 546.226562 C 485.5 545.113281 485.414062 543.996094 485.355469 542.875 C 485.292969 541.757812 485.261719 540.636719 485.257812 539.515625 C 485.253906 538.394531 485.277344 537.273438 485.328125 536.152344 C 485.378906 535.035156 485.457031 533.914062 485.5625 532.800781 C 485.667969 531.683594 485.800781 530.570312 485.960938 529.460938 C 486.121094 528.351562 486.308594 527.246094 486.523438 526.148438 C 486.738281 525.046875 486.980469 523.953125 487.25 522.863281 C 487.515625 521.777344 487.8125 520.695312 488.132812 519.621094 C 488.453125 518.546875 488.800781 517.480469 489.175781 516.425781 C 489.550781 515.367188 489.949219 514.320312 490.375 513.285156 C 490.800781 512.246094 491.25 511.21875 491.726562 510.203125 C 492.199219 509.191406 492.699219 508.1875 493.226562 507.195312 C 493.75 506.207031 494.296875 505.230469 494.871094 504.265625 C 495.445312 503.300781 496.039062 502.351562 496.660156 501.417969 C 497.277344 500.484375 497.921875 499.566406 498.585938 498.660156 C 499.25 497.757812 499.933594 496.871094 500.644531 496.003906 C 501.351562 495.132812 502.078125 494.285156 502.828125 493.449219 C 503.578125 492.617188 504.347656 491.800781 505.136719 491.007812 C 505.929688 490.210938 506.738281 489.433594 507.5625 488.679688 C 508.390625 487.921875 509.238281 487.1875 510.101562 486.472656 C 510.964844 485.757812 511.847656 485.066406 512.746094 484.394531 C 513.640625 483.722656 514.554688 483.074219 515.484375 482.449219 C 516.414062 481.824219 517.359375 481.21875 518.320312 480.640625 C 519.277344 480.058594 520.25 479.503906 521.238281 478.972656 C 522.226562 478.441406 523.222656 477.933594 524.234375 477.449219 C 525.246094 476.964844 526.269531 476.507812 527.304688 476.074219 C 528.335938 475.640625 529.382812 475.234375 530.4375 474.851562 C 531.488281 474.472656 532.550781 474.117188 533.625 473.785156 C 534.695312 473.457031 535.773438 473.15625 536.859375 472.878906 C 537.945312 472.601562 539.039062 472.351562 540.136719 472.128906 C 541.238281 471.90625 542.339844 471.710938 543.449219 471.542969 C 544.554688 471.375 545.667969 471.230469 546.785156 471.117188 C 547.898438 471.003906 549.015625 470.917969 550.136719 470.859375 C 551.253906 470.796875 552.375 470.765625 553.496094 470.761719 C 554.617188 470.757812 555.738281 470.78125 556.855469 470.832031 C 557.976562 470.882812 559.09375 470.960938 560.210938 471.066406 C 561.328125 471.171875 562.4375 471.304688 563.546875 471.464844 C 564.65625 471.625 565.761719 471.8125 566.863281 472.027344 C 567.964844 472.242188 569.058594 472.484375 570.144531 472.753906 C 571.234375 473.019531 572.316406 473.316406 573.390625 473.636719 C 574.464844 473.957031 575.527344 474.304688 576.585938 474.679688 C 577.644531 475.054688 578.691406 475.453125 579.726562 475.878906 C 580.765625 476.304688 581.789062 476.753906 582.804688 477.230469 C 583.820312 477.703125 584.824219 478.203125 585.8125 478.730469 C 586.804688 479.253906 587.78125 479.800781 588.746094 480.375 C 589.710938 480.949219 590.660156 481.542969 591.59375 482.164062 C 592.527344 482.78125 593.445312 483.425781 594.347656 484.089844 C 595.25 484.753906 596.136719 485.4375 597.007812 486.148438 C 597.875 486.855469 598.726562 487.582031 599.558594 488.332031 C 600.394531 489.082031 601.207031 489.851562 602.003906 490.640625 C 602.800781 491.433594 603.574219 492.242188 604.332031 493.066406 C 605.085938 493.894531 605.824219 494.742188 606.535156 495.605469 C 607.25 496.46875 607.945312 497.351562 608.613281 498.25 C 609.285156 499.144531 609.933594 500.058594 610.5625 500.988281 C 611.1875 501.917969 611.789062 502.863281 612.371094 503.824219 C 612.949219 504.78125 613.507812 505.753906 614.039062 506.742188 C 614.570312 507.726562 615.078125 508.726562 615.5625 509.738281 C 616.042969 510.75 616.503906 511.773438 616.933594 512.808594 C 617.367188 513.839844 617.777344 514.886719 618.15625 515.941406 Z M 618.15625 515.941406 "/><path style=" stroke:none;fill-rule:evenodd;fill:#ffb010;fill-opacity:1;" d="M 548.800781 607.574219 C 513.285156 605.035156 485.257812 575.421875 485.257812 539.257812 C 485.257812 503.09375 513.285156 473.480469 548.800781 470.941406 C 584.316406 473.480469 612.34375 503.09375 612.34375 539.257812 C 612.34375 575.421875 584.316406 605.035156 548.800781 607.574219 Z M 548.800781 607.574219 "/><g clip-rule="nonzero" clip-path="url(#e77ba8e54a)"><path style=" stroke:none;fill-rule:evenodd;fill:#ffffff;fill-opacity:1;" d="M 865.710938 257.894531 L 835.160156 257.894531 L 835.160156 219.382812 C 835.160156 214.9375 831.507812 211.34375 827.078125 211.34375 C 822.652344 211.34375 819.054688 214.9375 819.054688 219.382812 L 819.054688 265.929688 C 819.054688 270.363281 822.652344 273.96875 827.078125 273.96875 L 865.710938 273.96875 C 870.136719 273.96875 873.734375 270.363281 873.734375 265.929688 C 873.734375 261.5 870.136719 257.890625 865.710938 257.890625 Z M 827.078125 338.363281 C 822.652344 338.363281 819.054688 341.957031 819.054688 346.402344 L 819.054688 351.578125 C 819.054688 356.023438 822.652344 359.617188 827.078125 359.617188 C 831.507812 359.617188 835.160156 356.023438 835.160156 351.578125 L 835.160156 346.402344 C 835.160156 341.957031 831.507812 338.363281 827.078125 338.363281 Z M 907.550781 273.96875 L 912.753906 273.96875 C 917.183594 273.96875 920.78125 270.363281 920.78125 265.933594 C 920.78125 261.5 917.183594 257.894531 912.753906 257.894531 L 907.550781 257.894531 C 903.125 257.894531 899.527344 261.488281 899.527344 265.933594 C 899.527344 270.375 903.125 273.96875 907.550781 273.96875 Z M 746.605469 257.894531 L 741.457031 257.894531 C 736.976562 257.894531 733.378906 261.488281 733.378906 265.933594 C 733.378906 270.375 736.976562 273.96875 741.457031 273.96875 L 746.605469 273.96875 C 751.089844 273.96875 754.6875 270.363281 754.6875 265.933594 C 754.6875 261.5 751.089844 257.894531 746.605469 257.894531 Z M 827.078125 193.503906 C 831.503906 193.503906 835.160156 189.898438 835.160156 185.464844 L 835.160156 180.273438 C 835.160156 175.832031 831.503906 172.234375 827.078125 172.234375 C 822.652344 172.234375 819.054688 175.832031 819.054688 180.273438 L 819.054688 185.464844 C 819.054688 189.898438 822.652344 193.503906 827.078125 193.503906 Z M 529.816406 571.261719 C 531.867188 571.261719 533.914062 570.480469 535.460938 568.917969 L 559.484375 544.941406 C 560.976562 543.425781 561.808594 541.382812 561.808594 539.257812 L 561.808594 507.164062 C 561.808594 502.722656 558.210938 499.128906 553.78125 499.128906 C 549.355469 499.128906 545.757812 502.71875 545.757812 507.164062 L 545.757812 535.929688 L 524.117188 557.539062 C 520.964844 560.6875 520.964844 565.773438 524.117188 568.90625 C 525.667969 570.480469 527.714844 571.257812 529.820312 571.257812 Z M 493.34375 539.261719 C 493.34375 505.914062 520.464844 478.792969 553.78125 478.792969 C 587.101562 478.792969 614.21875 505.914062 614.21875 539.261719 C 614.21875 572.605469 587.101562 599.714844 553.78125 599.714844 C 520.464844 599.714844 493.34375 572.59375 493.34375 539.261719 Z M 477.238281 539.261719 C 477.238281 497.050781 511.554688 462.71875 553.78125 462.71875 C 596.011719 462.71875 630.324219 497.050781 630.324219 539.261719 C 630.324219 581.46875 595.957031 615.789062 553.78125 615.789062 C 511.609375 615.789062 477.238281 581.460938 477.238281 539.261719 Z M 925.152344 265.933594 C 925.152344 320 881.152344 363.992188 827.082031 363.992188 C 773.007812 363.992188 729.0625 320 729.0625 265.933594 C 729.0625 211.863281 773.007812 167.875 827.082031 167.875 C 881.152344 167.875 925.152344 211.863281 925.152344 265.933594 Z M 941.257812 265.933594 C 941.257812 328.867188 890.0625 380.066406 827.082031 380.066406 C 764.097656 380.066406 712.957031 328.867188 712.957031 265.933594 C 712.957031 202.996094 764.152344 151.796875 827.082031 151.796875 C 890.007812 151.796875 941.257812 203 941.257812 265.933594 Z M 692.148438 333.460938 C 694.804688 337.03125 694.027344 342.0625 690.488281 344.703125 C 686.890625 347.34375 681.851562 346.597656 679.195312 343.023438 L 677.425781 340.589844 L 677.425781 539.261719 C 677.425781 607.429688 621.96875 662.890625 553.78125 662.890625 C 485.597656 662.890625 430.140625 607.429688 430.140625 539.261719 C 430.140625 510.046875 440.601562 481.652344 459.640625 459.296875 C 462.515625 455.921875 467.609375 455.507812 470.984375 458.390625 C 474.359375 461.257812 474.75 466.335938 471.871094 469.722656 C 455.320312 489.164062 446.191406 513.863281 446.191406 539.261719 C 446.191406 598.566406 494.453125 646.816406 553.78125 646.816406 C 613.113281 646.816406 661.320312 598.566406 661.320312 539.261719 L 661.320312 340.589844 L 659.546875 343.023438 C 656.890625 346.59375 651.855469 347.339844 648.257812 344.703125 C 644.714844 342.058594 643.941406 337.03125 646.597656 333.460938 L 662.925781 311.457031 C 664.417969 309.402344 666.851562 308.199219 669.34375 308.199219 C 671.890625 308.199219 674.324219 309.402344 675.820312 311.457031 Z M 970.148438 332.644531 C 974.078125 334.734375 975.574219 339.605469 973.46875 343.519531 C 948.398438 390.414062 902.460938 422.425781 850.769531 429.980469 L 855.03125 432.875 C 858.683594 435.390625 859.625 440.394531 857.078125 444.046875 C 855.527344 446.324219 853.039062 447.539062 850.492188 447.539062 C 848.886719 447.539062 847.335938 447.089844 845.898438 446.136719 L 822.542969 430.085938 C 820.550781 428.707031 819.277344 426.488281 819.109375 424.066406 C 818.890625 421.632812 819.828125 419.257812 821.601562 417.589844 L 841.359375 399.070312 C 844.625 396.039062 849.714844 396.210938 852.761719 399.449219 C 855.804688 402.6875 855.636719 407.773438 852.371094 410.804688 L 848.996094 414 C 895.433594 407.050781 936.71875 378.171875 959.300781 335.953125 C 961.347656 332.035156 966.21875 330.554688 970.148438 332.644531 Z M 1006.898438 283.050781 C 1004.019531 279.679688 998.984375 279.285156 995.609375 282.167969 L 991.679688 285.488281 C 992.453125 279.011719 992.839844 272.464844 992.839844 265.933594 C 992.839844 220.75 973.914062 176.894531 940.871094 145.621094 C 937.605469 142.578125 932.570312 142.714844 929.46875 145.941406 C 926.425781 149.15625 926.59375 154.242188 929.800781 157.296875 C 959.6875 185.554688 976.789062 225.148438 976.789062 265.933594 C 976.789062 271.683594 976.457031 277.4375 975.792969 283.144531 L 973.582031 279.011719 C 971.476562 275.09375 966.605469 273.613281 962.734375 275.703125 C 958.804688 277.792969 957.308594 282.664062 959.410156 286.578125 L 972.195312 310.484375 C 973.304688 312.632812 975.40625 314.148438 977.785156 314.597656 C 978.285156 314.699219 978.78125 314.746094 979.28125 314.746094 C 981.164062 314.746094 983.042969 314.066406 984.484375 312.816406 L 1006.011719 294.386719 C 1009.386719 291.503906 1009.777344 286.429688 1006.898438 283.054688 Z M 794.425781 415.617188 L 699.898438 415.617188 C 695.46875 415.617188 691.871094 419.210938 691.871094 423.652344 C 691.871094 428.097656 695.46875 431.691406 699.898438 431.691406 L 794.425781 431.691406 C 798.855469 431.691406 802.453125 428.085938 802.453125 423.652344 C 802.453125 419.222656 798.855469 415.617188 794.425781 415.617188 Z M 669.34375 292.042969 C 673.828125 292.042969 677.425781 288.449219 677.425781 284.003906 L 677.425781 265.933594 C 677.425781 233.722656 687.773438 202.675781 706.925781 176.964844 L 706.757812 181.351562 C 706.648438 185.796875 710.132812 189.503906 714.5625 189.652344 C 718.988281 189.816406 722.699219 186.324219 722.863281 181.890625 L 723.75 154.804688 C 723.804688 152.371094 722.808594 150.027344 720.925781 148.441406 C 719.101562 146.847656 716.609375 146.179688 714.230469 146.628906 L 686.335938 151.820312 C 682.019531 152.625 679.140625 156.828125 679.914062 161.1875 C 680.746094 165.550781 684.953125 168.433594 689.324219 167.621094 L 694.582031 166.644531 C 673.054688 195.257812 661.320312 229.9375 661.320312 265.933594 L 661.320312 284.003906 C 661.320312 288.449219 664.917969 292.042969 669.34375 292.042969 Z M 746.941406 139.671875 C 770.960938 124.339844 798.6875 116.234375 827.082031 116.234375 C 845.898438 116.234375 864.660156 119.851562 882.09375 126.789062 L 877.667969 127.824219 C 873.292969 128.820312 870.636719 133.148438 871.632812 137.464844 C 872.519531 141.175781 875.785156 143.691406 879.4375 143.691406 C 880.046875 143.691406 880.652344 143.621094 881.261719 143.472656 L 907.664062 137.328125 C 910.042969 136.777344 912.035156 135.183594 913.085938 132.976562 C 914.140625 130.785156 914.140625 128.234375 913.140625 126.03125 L 900.910156 100.457031 C 898.972656 96.449219 894.160156 94.753906 890.175781 96.671875 C 886.191406 98.574219 884.472656 103.375 886.410156 107.382812 L 888.625 112.089844 C 869.144531 104.261719 848.167969 100.160156 827.078125 100.160156 C 795.585938 100.160156 764.871094 109.140625 738.304688 126.125 C 734.539062 128.511719 733.488281 133.484375 735.867188 137.214844 C 738.25 140.960938 743.230469 142.058594 746.9375 139.671875 Z M 483.492188 445.953125 C 484.542969 448.148438 486.535156 449.742188 488.917969 450.292969 L 515.316406 456.4375 C 515.925781 456.585938 516.535156 456.65625 517.144531 456.65625 C 520.796875 456.65625 524.117188 454.140625 525.003906 450.433594 C 526 446.113281 523.289062 441.796875 518.96875 440.789062 L 513.601562 439.535156 C 526.332031 434.378906 540.003906 431.691406 553.785156 431.691406 L 637.132812 431.691406 C 641.617188 431.691406 645.160156 428.085938 645.160156 423.65625 C 645.160156 419.222656 641.617188 415.621094 637.132812 415.621094 L 553.785156 415.621094 C 538.175781 415.621094 522.734375 418.601562 508.34375 424.320312 L 510.226562 420.347656 C 512.164062 416.351562 510.449219 411.550781 506.40625 409.636719 C 502.421875 407.730469 497.664062 409.417969 495.726562 413.425781 L 483.492188 439.007812 C 482.441406 441.203125 482.441406 443.761719 483.492188 445.957031 Z M 483.492188 445.953125 "/></g></g></svg>