<svg xmlns="http://www.w3.org/2000/svg" xmlns:xlink="http://www.w3.org/1999/xlink" width="1920" zoomAndPan="magnify" viewBox="0 0 1440 809.999993" height="1080" preserveAspectRatio="xMidYMid meet" version="1.2"><defs><clipPath id="a73f3d0805"><path d="M 354.972656 169 L 925 169 L 925 261 L 354.972656 261 Z M 354.972656 169 "/></clipPath><clipPath id="5790886c97"><path d="M 354.972656 260 L 925 260 L 925 587 L 354.972656 587 Z M 354.972656 260 "/></clipPath></defs><g id="891c5730dd"><g clip-rule="nonzero" clip-path="url(#a73f3d0805)"><path style=" stroke:none;fill-rule:nonzero;fill:#fe3e78;fill-opacity:1;" d="M 897.195312 169.460938 L 382.304688 169.460938 C 367.210938 169.460938 354.972656 181.699219 354.972656 196.792969 L 354.972656 260.386719 L 924.527344 260.386719 L 924.527344 196.792969 C 924.527344 181.699219 912.292969 169.460938 897.195312 169.460938 Z M 897.195312 169.460938 "/></g><g clip-rule="nonzero" clip-path="url(#5790886c97)"><path style=" stroke:none;fill-rule:nonzero;fill:#ffffff;fill-opacity:1;" d="M 382.304688 586.898438 L 897.195312 586.898438 C 912.292969 586.898438 924.527344 574.664062 924.527344 559.566406 L 924.527344 260.386719 L 354.972656 260.386719 L 354.972656 559.566406 C 354.972656 574.664062 367.210938 586.898438 382.304688 586.898438 Z M 382.304688 586.898438 "/></g><path style=" stroke:none;fill-rule:nonzero;fill:#ffaa00;fill-opacity:1;" d="M 747.648438 616.082031 C 747.648438 676.164062 698.945312 724.867188 638.867188 724.867188 C 578.785156 724.867188 530.082031 676.164062 530.082031 616.082031 C 530.082031 556.003906 578.785156 507.300781 638.867188 507.300781 C 698.945312 507.300781 747.648438 556.003906 747.648438 616.082031 Z M 747.648438 616.082031 "/><path style=" stroke:none;fill-rule:nonzero;fill:#fe3e78;fill-opacity:1;" d="M 851.550781 360.050781 C 846.210938 354.714844 846.210938 346.0625 851.550781 340.726562 L 862.113281 330.164062 C 867.449219 324.828125 876.101562 324.828125 881.441406 330.164062 L 979.804688 428.527344 C 985.140625 433.863281 985.140625 442.519531 979.804688 447.855469 L 969.242188 458.417969 C 963.902344 463.753906 955.25 463.753906 949.914062 458.417969 Z M 851.550781 360.050781 "/><path style=" stroke:none;fill-rule:nonzero;fill:#ffaa00;fill-opacity:1;" d="M 926.886719 450.335938 C 913.992188 437.4375 913.992188 416.527344 926.886719 403.628906 C 939.785156 390.734375 960.695312 390.734375 973.589844 403.628906 L 1071.824219 501.867188 C 1084.722656 514.761719 1084.722656 535.671875 1071.824219 548.570312 C 1058.929688 561.464844 1038.019531 561.464844 1025.121094 548.570312 Z M 926.886719 450.335938 "/><path style=" stroke:none;fill-rule:nonzero;fill:#fe3e78;fill-opacity:1;" d="M 906.339844 149.566406 C 970.820312 214.050781 971.238281 318.179688 907.273438 382.148438 C 843.304688 446.117188 739.175781 445.695312 674.691406 381.214844 C 610.210938 316.730469 609.789062 212.601562 673.757812 148.632812 C 737.726562 84.667969 841.855469 85.085938 906.339844 149.566406 Z M 906.339844 149.566406 "/><path style=" stroke:none;fill-rule:nonzero;fill:#ffaa00;fill-opacity:1;" d="M 886.722656 171.050781 C 939.339844 223.667969 938.921875 309.398438 885.789062 362.53125 C 832.65625 415.667969 746.925781 416.085938 694.304688 363.46875 C 641.6875 310.847656 642.105469 225.121094 695.242188 171.984375 C 748.375 118.851562 834.105469 118.433594 886.722656 171.050781 Z M 886.722656 171.050781 "/><path style=" stroke:none;fill-rule:nonzero;fill:#ffffff;fill-opacity:1;" d="M 905.0625 258.929688 C 908.839844 262.632812 908.839844 268.535156 905.0625 272.238281 C 887.460938 289.480469 836.835938 334.273438 785.871094 334.273438 C 734.578125 334.273438 687.402344 288.90625 671.53125 271.910156 C 668.171875 268.3125 668.171875 262.855469 671.53125 259.257812 C 687.402344 242.261719 734.578125 196.894531 785.871094 196.894531 C 836.835938 196.894531 887.460938 241.683594 905.0625 258.929688 Z M 905.0625 258.929688 "/><path style=" stroke:none;fill-rule:nonzero;fill:#fe3e78;fill-opacity:1;" d="M 841.394531 266.746094 C 841.394531 297.027344 816.84375 321.578125 786.5625 321.578125 C 756.277344 321.578125 731.726562 297.027344 731.726562 266.746094 C 731.726562 236.460938 756.277344 211.914062 786.5625 211.914062 C 816.84375 211.914062 841.394531 236.460938 841.394531 266.746094 Z M 841.394531 266.746094 "/><path style=" stroke:none;fill-rule:nonzero;fill:#ffaa00;fill-opacity:1;" d="M 814.863281 266.746094 C 814.863281 282.375 802.191406 295.046875 786.5625 295.046875 C 770.933594 295.046875 758.261719 282.375 758.261719 266.746094 C 758.261719 251.113281 770.933594 238.445312 786.5625 238.445312 C 802.191406 238.445312 814.863281 251.113281 814.863281 266.746094 Z M 814.863281 266.746094 "/><path style=" stroke:none;fill-rule:evenodd;fill:#fe3e78;fill-opacity:1;" d="M 721.847656 564.9375 C 725.183594 568.273438 725.183594 573.683594 721.847656 577.019531 L 632.011719 666.90625 C 627.8125 671.105469 621.171875 671.589844 616.40625 668.042969 L 566.546875 630.894531 C 562.765625 628.074219 561.984375 622.722656 564.804688 618.941406 C 567.621094 615.160156 572.972656 614.375 576.753906 617.195312 L 623.0625 651.695312 L 709.765625 564.941406 C 713.101562 561.605469 718.511719 561.605469 721.847656 564.9375 Z M 721.847656 564.9375 "/><path style=" stroke:none;fill-rule:nonzero;fill:#ffffff;fill-opacity:1;" d="M 427.492188 217.21875 C 427.492188 226.988281 419.574219 234.90625 409.804688 234.90625 C 400.039062 234.90625 392.117188 226.988281 392.117188 217.21875 C 392.117188 207.449219 400.039062 199.53125 409.804688 199.53125 C 419.574219 199.53125 427.492188 207.449219 427.492188 217.21875 Z M 427.492188 217.21875 "/><path style=" stroke:none;fill-rule:nonzero;fill:#ffffff;fill-opacity:1;" d="M 480.558594 217.21875 C 480.558594 226.988281 472.640625 234.90625 462.871094 234.90625 C 453.101562 234.90625 445.183594 226.988281 445.183594 217.21875 C 445.183594 207.449219 453.101562 199.53125 462.871094 199.53125 C 472.640625 199.53125 480.558594 207.449219 480.558594 217.21875 Z M 480.558594 217.21875 "/><path style=" stroke:none;fill-rule:nonzero;fill:#ffffff;fill-opacity:1;" d="M 533.621094 217.21875 C 533.621094 226.988281 525.703125 234.90625 515.933594 234.90625 C 506.164062 234.90625 498.246094 226.988281 498.246094 217.21875 C 498.246094 207.449219 506.164062 199.53125 515.933594 199.53125 C 525.703125 199.53125 533.621094 207.449219 533.621094 217.21875 Z M 533.621094 217.21875 "/><path style=" stroke:none;fill-rule:nonzero;fill:#fe3e78;fill-opacity:1;" d="M 402.730469 319.808594 C 402.730469 314.925781 406.691406 310.964844 411.574219 310.964844 L 523.007812 310.964844 C 527.894531 310.964844 531.851562 314.925781 531.851562 319.808594 C 531.851562 324.695312 527.894531 328.652344 523.007812 328.652344 L 411.574219 328.652344 C 406.691406 328.652344 402.730469 324.695312 402.730469 319.808594 Z M 402.730469 319.808594 "/><path style=" stroke:none;fill-rule:nonzero;fill:#fe3e78;fill-opacity:1;" d="M 402.730469 425.9375 C 402.730469 421.050781 406.691406 417.09375 411.574219 417.09375 L 675.125 417.09375 C 680.011719 417.09375 683.96875 421.050781 683.96875 425.9375 C 683.96875 430.820312 680.011719 434.78125 675.125 434.78125 L 411.574219 434.78125 C 406.691406 434.78125 402.730469 430.820312 402.730469 425.9375 Z M 402.730469 425.9375 "/><path style=" stroke:none;fill-rule:nonzero;fill:#fe3e78;fill-opacity:1;" d="M 402.730469 372.875 C 402.730469 367.988281 406.691406 364.027344 411.574219 364.027344 L 579.613281 364.027344 C 584.496094 364.027344 588.453125 367.988281 588.453125 372.875 C 588.453125 377.757812 584.496094 381.71875 579.613281 381.71875 L 411.574219 381.71875 C 406.691406 381.71875 402.730469 377.757812 402.730469 372.875 Z M 402.730469 372.875 "/><path style=" stroke:none;fill-rule:nonzero;fill:#fe3e78;fill-opacity:1;" d="M 402.730469 479.003906 C 402.730469 474.117188 406.691406 470.15625 411.574219 470.15625 L 675.125 470.15625 C 680.011719 470.15625 683.96875 474.117188 683.96875 479.003906 C 683.96875 483.886719 680.011719 487.84375 675.125 487.84375 L 411.574219 487.84375 C 406.691406 487.84375 402.730469 483.886719 402.730469 479.003906 Z M 402.730469 479.003906 "/></g></svg>