<svg xmlns="http://www.w3.org/2000/svg" xmlns:xlink="http://www.w3.org/1999/xlink" width="1920" zoomAndPan="magnify" viewBox="0 0 1440 809.999993" height="1080" preserveAspectRatio="xMidYMid meet" version="1.2"><defs><clipPath id="95bf14147b"><path d="M 521.679688 523 L 935 523 L 935 541.320312 L 521.679688 541.320312 Z M 521.679688 523 "/></clipPath><clipPath id="3f8de7dc0b"><path d="M 538 133.449219 L 827 133.449219 L 827 418 L 538 418 Z M 538 133.449219 "/></clipPath><clipPath id="855715ea5b"><path d="M 613 392 L 902 392 L 902 676.449219 L 613 676.449219 Z M 613 392 "/></clipPath><clipPath id="fbdc593cef"><path d="M 372.414062 261 L 574 261 L 574 548 L 372.414062 548 Z M 372.414062 261 "/></clipPath><clipPath id="7c31f2adb2"><path d="M 866 261 L 1067.664062 261 L 1067.664062 548 L 866 548 Z M 866 261 "/></clipPath></defs><g id="e756aabe90"><g clip-rule="nonzero" clip-path="url(#95bf14147b)"><path style=" stroke:none;fill-rule:nonzero;fill:#f4f2f9;fill-opacity:1;" d="M 925.660156 523.335938 L 530.804688 523.335938 C 525.847656 523.335938 521.828125 527.355469 521.828125 532.3125 C 521.828125 537.265625 525.847656 541.285156 530.804688 541.285156 L 925.660156 541.285156 C 930.613281 541.285156 934.636719 537.265625 934.636719 532.3125 C 934.636719 527.355469 930.613281 523.335938 925.660156 523.335938 Z M 925.660156 523.335938 "/></g><path style=" stroke:none;fill-rule:nonzero;fill:#f4f2f9;fill-opacity:1;" d="M 565.171875 377.6875 C 580.609375 393.390625 601.609375 401.917969 622.964844 401.917969 C 632.210938 401.917969 641.453125 400.300781 650.425781 397.070312 L 725.261719 369.871094 L 710.9375 448.996094 C 710.085938 453.726562 711.84375 458.589844 715.515625 461.683594 C 717.976562 463.757812 721.070312 464.851562 724.203125 464.851562 C 725.746094 464.851562 727.300781 464.582031 728.789062 464.046875 L 750.972656 455.96875 C 758.492188 453.230469 764.371094 447.335938 767.089844 439.796875 L 802.410156 341.71875 L 916.050781 300.339844 C 924.039062 297.46875 930.140625 291.097656 932.652344 283.019531 C 935.164062 274.855469 933.730469 266.238281 928.703125 259.238281 C 916.769531 242.726562 897.382812 232.855469 876.921875 232.855469 C 869.386719 232.855469 862.027344 234.113281 854.9375 236.714844 L 767.773438 268.429688 L 687.839844 221.890625 C 680.929688 217.851562 672.675781 217.132812 665.046875 219.824219 L 642.878906 227.902344 C 638.304688 229.515625 634.984375 233.554688 634.175781 238.402344 C 633.367188 243.15625 635.253906 248.003906 638.839844 250.875 L 692.738281 295.726562 L 617.664062 323.042969 C 610.933594 325.46875 603.484375 325.199219 597.203125 322.238281 L 567.585938 308.597656 C 563.28125 306.621094 558.253906 306.441406 553.945312 308.058594 L 531.601562 316.222656 C 527.292969 317.75 524.0625 321.339844 522.988281 325.738281 C 521.910156 330.222656 523.167969 334.890625 526.488281 338.300781 L 565.164062 377.695312 Z M 656.351562 242.070312 L 671.15625 236.6875 C 673.671875 235.789062 676.453125 235.96875 678.785156 237.316406 L 745.929688 276.371094 L 712.277344 288.613281 L 656.339844 242.070312 Z M 560.058594 324.921875 L 589.671875 338.5625 C 600.261719 343.40625 612.734375 343.945312 623.773438 339.90625 L 861.046875 253.578125 C 866.164062 251.691406 871.457031 250.792969 876.933594 250.792969 C 891.648438 250.792969 905.558594 257.882812 914.175781 269.820312 C 915.878906 272.0625 916.328125 274.933594 915.519531 277.71875 C 914.625 280.410156 912.648438 282.472656 909.957031 283.460938 L 810.328125 319.761719 L 811.753906 315.8125 C 813.433594 311.144531 811.007812 306.003906 806.351562 304.324219 C 801.695312 302.664062 796.550781 305.070312 794.863281 309.726562 L 750.210938 433.703125 C 749.304688 436.214844 747.347656 438.183594 744.84375 439.097656 L 730 444.5 L 749.421875 337.195312 C 750.308594 332.324219 747.070312 327.648438 742.1875 326.769531 C 737.289062 325.871094 732.648438 329.128906 731.757812 334.003906 L 728.96875 349.417969 L 644.324219 380.210938 C 621.261719 388.554688 595.148438 382.632812 577.917969 365.132812 L 544.175781 330.671875 L 560.058594 324.929688 Z M 560.058594 324.921875 "/><g clip-rule="nonzero" clip-path="url(#3f8de7dc0b)"><path style=" stroke:none;fill-rule:nonzero;fill:#fe3e78;fill-opacity:1;" d="M 640.851562 412.339844 C 640.117188 414.828125 642.019531 417.242188 644.582031 417.242188 L 654.824219 417.242188 C 661.847656 417.242188 668.359375 413.65625 672.089844 407.730469 C 684.96875 387.097656 715.257812 337.421875 729.449219 302.886719 L 798.734375 302.886719 C 813.953125 302.886719 826.246094 290.597656 826.246094 275.378906 C 826.246094 260.160156 813.953125 247.867188 798.734375 247.867188 L 729.449219 247.867188 C 715.257812 213.335938 684.96875 163.65625 672.089844 143.027344 C 668.359375 137.027344 661.847656 133.515625 654.824219 133.515625 L 644.582031 133.515625 C 642.019531 133.515625 640.117188 135.929688 640.851562 138.417969 C 645.53125 154.730469 660.457031 208.582031 666.238281 248.746094 L 590.222656 253.941406 C 582.394531 237.480469 570.320312 217.578125 564.6875 208.652344 C 562.785156 205.652344 559.492188 203.824219 555.980469 203.824219 L 542.738281 203.824219 C 540.105469 203.824219 538.203125 206.3125 538.859375 208.871094 C 542.59375 222.042969 552.101562 257.746094 552.101562 275.449219 C 552.101562 293.082031 542.519531 328.785156 538.859375 341.957031 C 538.128906 344.515625 540.03125 347.003906 542.738281 347.003906 L 555.980469 347.003906 C 559.566406 347.003906 562.785156 345.175781 564.6875 342.175781 C 570.320312 333.175781 582.394531 313.347656 590.222656 296.886719 L 666.238281 302.082031 C 660.457031 342.101562 645.53125 395.949219 640.851562 412.339844 Z M 640.851562 412.339844 "/></g><g clip-rule="nonzero" clip-path="url(#855715ea5b)"><path style=" stroke:none;fill-rule:nonzero;fill:#fe3e78;fill-opacity:1;" d="M 897.140625 462.96875 L 883.898438 462.96875 C 880.3125 462.96875 877.09375 464.796875 875.191406 467.796875 C 869.558594 476.796875 857.484375 496.621094 849.65625 513.085938 L 773.640625 507.890625 C 779.421875 467.796875 794.347656 413.949219 799.027344 397.558594 C 799.761719 395.074219 797.859375 392.65625 795.296875 392.65625 L 785.054688 392.65625 C 778.03125 392.65625 771.519531 396.242188 767.789062 402.167969 C 754.910156 422.800781 724.621094 472.480469 710.429688 507.011719 L 641.144531 507.011719 C 625.925781 507.011719 613.632812 519.304688 613.632812 534.519531 C 613.632812 549.664062 625.925781 562.03125 641.144531 562.03125 L 710.429688 562.03125 C 724.621094 596.5625 754.910156 646.242188 767.789062 666.871094 C 771.519531 672.800781 778.03125 676.382812 785.054688 676.382812 L 795.296875 676.382812 C 797.859375 676.382812 799.761719 673.96875 799.027344 671.480469 C 794.347656 655.167969 779.421875 601.320312 773.640625 561.152344 L 849.65625 556.03125 C 857.484375 572.492188 869.558594 592.320312 875.191406 601.320312 C 877.09375 604.320312 880.386719 606.148438 883.898438 606.148438 L 897.140625 606.148438 C 899.773438 606.148438 901.675781 603.660156 901.019531 601.097656 C 897.285156 587.929688 887.773438 552.226562 887.773438 534.59375 C 887.773438 516.960938 897.359375 481.257812 901.019531 468.089844 C 901.675781 465.457031 899.773438 462.96875 897.140625 462.96875 Z M 897.140625 462.96875 "/></g><g clip-rule="nonzero" clip-path="url(#fbdc593cef)"><path style=" stroke:none;fill-rule:nonzero;fill:#fe3e78;fill-opacity:1;" d="M 559.785156 521.058594 L 498.328125 521.058594 C 443.75 521.058594 399.339844 476.648438 399.339844 422.070312 L 399.339844 387.828125 C 399.339844 333.25 443.75 288.839844 498.328125 288.839844 C 505.792969 288.839844 511.789062 282.839844 511.789062 275.378906 C 511.789062 267.914062 505.792969 261.914062 498.328125 261.914062 C 428.898438 261.914062 372.414062 318.398438 372.414062 387.828125 L 372.414062 422.070312 C 372.414062 491.5 428.898438 547.984375 498.328125 547.984375 L 559.785156 547.984375 C 567.25 547.984375 573.246094 541.984375 573.246094 534.519531 C 573.246094 527.058594 567.25 521.058594 559.785156 521.058594 Z M 559.785156 521.058594 "/></g><g clip-rule="nonzero" clip-path="url(#7c31f2adb2)"><path style=" stroke:none;fill-rule:nonzero;fill:#fe3e78;fill-opacity:1;" d="M 941.550781 261.914062 L 880.09375 261.914062 C 872.628906 261.914062 866.632812 267.914062 866.632812 275.378906 C 866.632812 282.839844 872.628906 288.839844 880.09375 288.839844 L 941.550781 288.839844 C 996.128906 288.839844 1040.539062 333.25 1040.539062 387.828125 L 1040.539062 422.070312 C 1040.539062 476.648438 996.128906 521.058594 941.550781 521.058594 C 934.085938 521.058594 928.085938 527.058594 928.085938 534.519531 C 928.085938 541.984375 934.085938 547.984375 941.550781 547.984375 C 1010.980469 547.984375 1067.464844 491.5 1067.464844 422.070312 L 1067.464844 387.828125 C 1067.464844 318.398438 1010.980469 261.914062 941.550781 261.914062 Z M 941.550781 261.914062 "/></g></g></svg>